<svg width="60" height="60" viewBox="0 0 60 60" fill="none" xmlns="http://www.w3.org/2000/svg">
    <rect width="60" height="60" rx="30" fill="url(#paint0_linear_255_31612)"/>
    <path fill-rule="evenodd" clip-rule="evenodd"
          d="M27.9167 38.3333V44.5833H23.7501C22.5995 44.5833 21.6667 45.5161 21.6667 46.6667C21.6667 47.8173 22.5995 48.75 23.7501 48.75H36.2501C37.4007 48.75 38.3334 47.8173 38.3334 46.6667C38.3334 45.5161 37.4007 44.5833 36.2501 44.5833H32.0834V38.3333C32.0834 37.1827 31.1507 36.25 30.0001 36.25C28.8495 36.25 27.9167 37.1827 27.9167 38.3333Z"
          fill="#141416"/>
    <path fill-rule="evenodd" clip-rule="evenodd"
          d="M21.6667 15.4167C20.5162 15.4167 19.5834 16.3494 19.5834 17.5V25.8333C19.5834 31.5863 24.2471 36.25 30.0001 36.25C35.753 36.25 40.4167 31.5863 40.4167 25.8333V17.5C40.4167 16.3494 39.484 15.4167 38.3334 15.4167H21.6667ZM15.4167 17.5V25.8333C15.4167 33.8875 21.9459 40.4167 30.0001 40.4167C38.0542 40.4167 44.5834 33.8875 44.5834 25.8333V17.5C44.5834 14.0482 41.7852 11.25 38.3334 11.25H21.6667C18.215 11.25 15.4167 14.0482 15.4167 17.5Z"
          fill="#141416"/>
    <path fill-rule="evenodd" clip-rule="evenodd"
          d="M13.3333 15.4165H19.5833V32.0832H15.4166C10.8142 32.0832 7.08325 28.3522 7.08325 23.7498V21.6665C7.08325 18.2147 9.88147 15.4165 13.3333 15.4165ZM15.4166 19.5832V27.9165C13.1154 27.9165 11.2499 26.051 11.2499 23.7498V21.6665C11.2499 20.5159 12.1827 19.5832 13.3333 19.5832H15.4166ZM46.6666 15.4165H40.4166V32.0832H44.5833C49.1856 32.0832 52.9166 28.3522 52.9166 23.7498V21.6665C52.9166 18.2147 50.1184 15.4165 46.6666 15.4165ZM44.5833 19.5832V27.9165C46.8844 27.9165 48.7499 26.051 48.7499 23.7498V21.6665C48.7499 20.5159 47.8172 19.5832 46.6666 19.5832H44.5833Z"
          fill="#141416"/>
    <path
            d="M30.7457 21.2012C31.0504 21.2012 31.2028 21.3535 31.2028 21.6582V28.5312C31.2028 28.8438 31.0504 29 30.7457 29H30.0485C29.7438 29 29.5914 28.8438 29.5914 28.5312V22.5312H28.2965C28.1364 22.5312 28.0172 22.4883 27.9391 22.4023C27.8649 22.3164 27.8551 22.1914 27.9098 22.0273L28.0329 21.6348C28.0797 21.4824 28.1461 21.373 28.2321 21.3066C28.3219 21.2363 28.443 21.2012 28.5954 21.2012H30.7457Z"
            fill="#23262F"/>
    <defs>
        <linearGradient id="paint0_linear_255_31612" x1="0" y1="0" x2="0" y2="60" gradientUnits="userSpaceOnUse">
            <stop stop-color="#ECD868"/>
            <stop offset="1" stop-color="#D4AF37"/>
        </linearGradient>
    </defs>
</svg>
