<svg width="60" height="60" viewBox="0 0 60 60" fill="none" xmlns="http://www.w3.org/2000/svg">
    <rect width="60" height="60" rx="30" fill="url(#paint0_linear_255_31618)"/>
    <path fill-rule="evenodd" clip-rule="evenodd"
          d="M27.9167 38.3333V44.5833H23.7501C22.5995 44.5833 21.6667 45.5161 21.6667 46.6667C21.6667 47.8173 22.5995 48.75 23.7501 48.75H36.2501C37.4007 48.75 38.3334 47.8173 38.3334 46.6667C38.3334 45.5161 37.4007 44.5833 36.2501 44.5833H32.0834V38.3333C32.0834 37.1827 31.1507 36.25 30.0001 36.25C28.8495 36.25 27.9167 37.1827 27.9167 38.3333Z"
          fill="#141416"/>
    <path fill-rule="evenodd" clip-rule="evenodd"
          d="M21.6667 15.4167C20.5162 15.4167 19.5834 16.3494 19.5834 17.5V25.8333C19.5834 31.5863 24.2471 36.25 30.0001 36.25C35.753 36.25 40.4167 31.5863 40.4167 25.8333V17.5C40.4167 16.3494 39.484 15.4167 38.3334 15.4167H21.6667ZM15.4167 17.5V25.8333C15.4167 33.8875 21.9459 40.4167 30.0001 40.4167C38.0542 40.4167 44.5834 33.8875 44.5834 25.8333V17.5C44.5834 14.0482 41.7852 11.25 38.3334 11.25H21.6667C18.215 11.25 15.4167 14.0482 15.4167 17.5Z"
          fill="#141416"/>
    <path fill-rule="evenodd" clip-rule="evenodd"
          d="M13.3333 15.4165H19.5833V32.0832H15.4166C10.8142 32.0832 7.08325 28.3522 7.08325 23.7498V21.6665C7.08325 18.2147 9.88147 15.4165 13.3333 15.4165ZM15.4166 19.5832V27.9165C13.1154 27.9165 11.2499 26.051 11.2499 23.7498V21.6665C11.2499 20.5159 12.1827 19.5832 13.3333 19.5832H15.4166ZM46.6666 15.4165H40.4166V32.0832H44.5833C49.1856 32.0832 52.9166 28.3522 52.9166 23.7498V21.6665C52.9166 18.2147 50.1184 15.4165 46.6666 15.4165ZM44.5833 19.5832V27.9165C46.8844 27.9165 48.7499 26.051 48.7499 23.7498V21.6665C48.7499 20.5159 47.8172 19.5832 46.6666 19.5832H44.5833Z"
          fill="#141416"/>
    <path
            d="M32.4039 27.6816C32.5524 27.6816 32.6676 27.7227 32.7497 27.8047C32.8317 27.8828 32.8727 27.9941 32.8727 28.1387V28.5312C32.8727 28.6797 32.8317 28.7949 32.7497 28.877C32.6676 28.959 32.5524 29 32.4039 29H27.652C27.5036 29 27.3883 28.959 27.3063 28.877C27.2243 28.7949 27.1832 28.6797 27.1832 28.5312V28.1973C27.1832 27.9512 27.2829 27.7422 27.4821 27.5703C28.1071 27.0039 28.8239 26.3164 29.6325 25.5078C30.109 25.0312 30.4528 24.6426 30.6637 24.3418C30.8786 24.041 30.986 23.7461 30.986 23.457C30.986 23.1172 30.8747 22.8477 30.652 22.6484C30.4332 22.4492 30.1442 22.3496 29.7848 22.3496C29.2301 22.3496 28.6793 22.623 28.1325 23.1699C27.8981 23.3809 27.6774 23.3633 27.4704 23.1172L27.2418 22.8535C27.0504 22.627 27.0739 22.4004 27.3122 22.1738C28.0465 21.4277 28.9274 21.0547 29.9547 21.0547C30.7282 21.0547 31.3532 21.2715 31.8297 21.7051C32.3063 22.1348 32.5446 22.6992 32.5446 23.3984C32.5446 23.7812 32.4528 24.1484 32.2692 24.5C32.0856 24.8516 31.7946 25.2559 31.3961 25.7129C31.236 25.8965 31.0348 26.1055 30.7926 26.3398C30.5543 26.5703 30.3414 26.7715 30.1539 26.9434C29.9664 27.1152 29.6911 27.3613 29.3278 27.6816H32.4039Z"
            fill="#23262F"/>
    <defs>
        <linearGradient id="paint0_linear_255_31618" x1="0" y1="0" x2="0" y2="60" gradientUnits="userSpaceOnUse">
            <stop stop-color="#E1E1E1"/>
            <stop offset="1" stop-color="#C0C0C0"/>
        </linearGradient>
    </defs>
</svg>
