<svg width="60" height="60" viewBox="0 0 60 60" fill="none" xmlns="http://www.w3.org/2000/svg">
    <rect width="60" height="60" rx="30" fill="url(#paint0_linear_255_31624)"/>
    <path fill-rule="evenodd" clip-rule="evenodd"
          d="M27.9167 38.3333V44.5833H23.7501C22.5995 44.5833 21.6667 45.5161 21.6667 46.6667C21.6667 47.8173 22.5995 48.75 23.7501 48.75H36.2501C37.4007 48.75 38.3334 47.8173 38.3334 46.6667C38.3334 45.5161 37.4007 44.5833 36.2501 44.5833H32.0834V38.3333C32.0834 37.1827 31.1507 36.25 30.0001 36.25C28.8495 36.25 27.9167 37.1827 27.9167 38.3333Z"
          fill="#141416"/>
    <path fill-rule="evenodd" clip-rule="evenodd"
          d="M21.6667 15.4167C20.5162 15.4167 19.5834 16.3494 19.5834 17.5V25.8333C19.5834 31.5863 24.2471 36.25 30.0001 36.25C35.753 36.25 40.4167 31.5863 40.4167 25.8333V17.5C40.4167 16.3494 39.484 15.4167 38.3334 15.4167H21.6667ZM15.4167 17.5V25.8333C15.4167 33.8875 21.9459 40.4167 30.0001 40.4167C38.0542 40.4167 44.5834 33.8875 44.5834 25.8333V17.5C44.5834 14.0482 41.7852 11.25 38.3334 11.25H21.6667C18.215 11.25 15.4167 14.0482 15.4167 17.5Z"
          fill="#141416"/>
    <path fill-rule="evenodd" clip-rule="evenodd"
          d="M13.3333 15.4165H19.5833V32.0832H15.4166C10.8142 32.0832 7.08325 28.3522 7.08325 23.7498V21.6665C7.08325 18.2147 9.88147 15.4165 13.3333 15.4165ZM15.4166 19.5832V27.9165C13.1154 27.9165 11.2499 26.051 11.2499 23.7498V21.6665C11.2499 20.5159 12.1827 19.5832 13.3333 19.5832H15.4166ZM46.6666 15.4165H40.4166V32.0832H44.5833C49.1856 32.0832 52.9166 28.3522 52.9166 23.7498V21.6665C52.9166 18.2147 50.1184 15.4165 46.6666 15.4165ZM44.5833 19.5832V27.9165C46.8844 27.9165 48.7499 26.051 48.7499 23.7498V21.6665C48.7499 20.5159 47.8172 19.5832 46.6666 19.5832H44.5833Z"
          fill="#141416"/>
    <path
            d="M31.5133 24.8574C31.9352 25.0566 32.2633 25.3223 32.4977 25.6543C32.7321 25.9824 32.8493 26.3691 32.8493 26.8145C32.8493 27.498 32.5739 28.0586 32.0231 28.4961C31.4723 28.9297 30.7594 29.1465 29.8844 29.1465C29.3727 29.1465 28.8786 29.0449 28.402 28.8418C27.9293 28.6387 27.5309 28.375 27.2067 28.0508C26.9567 27.8164 26.9215 27.6094 27.1012 27.4297L27.4118 27.1016C27.6461 26.8672 27.861 26.8516 28.0563 27.0547C28.2868 27.2891 28.5582 27.4805 28.8707 27.6289C29.1832 27.7734 29.5055 27.8457 29.8375 27.8457C30.2477 27.8457 30.5778 27.7422 30.8278 27.5352C31.0778 27.3242 31.2028 27.0488 31.2028 26.709C31.2028 26.334 31.0543 26.0371 30.7575 25.8184C30.4606 25.5957 30.07 25.4844 29.5856 25.4844H29.2926C28.9918 25.4844 28.8414 25.3281 28.8414 25.0156V24.7988C28.8414 24.4863 28.9918 24.3301 29.2926 24.3301H29.6325C30.027 24.3301 30.3512 24.2344 30.6051 24.043C30.859 23.8477 30.986 23.5996 30.986 23.2988C30.986 23.0176 30.8727 22.7871 30.6461 22.6074C30.4196 22.4277 30.1286 22.3379 29.7731 22.3379C29.2028 22.3379 28.6989 22.5234 28.2614 22.8945C28.0192 23.0898 27.8004 23.0723 27.6051 22.8418L27.3766 22.5547C27.2868 22.4336 27.2536 22.3203 27.277 22.2148C27.3004 22.1094 27.3688 22.0117 27.4821 21.9219C28.1813 21.3438 29.0133 21.0547 29.9782 21.0547C30.7477 21.0547 31.3766 21.252 31.8649 21.6465C32.3532 22.0371 32.5973 22.541 32.5973 23.1582C32.5973 23.9004 32.236 24.4668 31.5133 24.8574Z"
            fill="#23262F"/>
    <defs>
        <linearGradient id="paint0_linear_255_31624" x1="0" y1="0" x2="0" y2="60" gradientUnits="userSpaceOnUse">
            <stop stop-color="#CDB264"/>
            <stop offset="1" stop-color="#9F7A34"/>
        </linearGradient>
    </defs>
</svg>
