<svg viewBox="0 0 17 16" xmlns="http://www.w3.org/2000/svg">
    <path fill-rule="evenodd" clip-rule="evenodd"
          d="M13.6145 8.00001C13.6145 5.05449 11.2267 2.66668 8.28117 2.66668C5.33565 2.66668 2.94784 5.05449 2.94784 8.00001C2.94784 10.9455 5.33565 13.3333 8.28117 13.3333C11.2267 13.3333 13.6145 10.9455 13.6145 8.00001ZM14.9478 8.00001C14.9478 4.31811 11.9631 1.33334 8.28117 1.33334C4.59927 1.33334 1.6145 4.31811 1.6145 8.00001C1.6145 11.6819 4.59927 14.6667 8.28117 14.6667C11.9631 14.6667 14.9478 11.6819 14.9478 8.00001Z"/>
    <path fill-rule="evenodd" clip-rule="evenodd"
          d="M8.28117 4C8.64936 4 8.94784 4.29848 8.94784 4.66667C10.0524 4.66667 10.9478 5.5621 10.9478 6.66667C10.9478 7.03486 10.6494 7.33333 10.2812 7.33333C9.91298 7.33333 9.6145 7.03486 9.6145 6.66667C9.6145 6.29848 9.31602 6 8.94784 6H7.44345C7.16973 6 6.94784 6.22189 6.94784 6.49561C6.94784 6.70894 7.08434 6.89833 7.28672 6.96579L9.69725 7.7693C10.4441 8.01825 10.9478 8.71716 10.9478 9.50439C10.9478 10.5145 10.129 11.3333 9.11889 11.3333H8.94784C8.94784 11.7015 8.64936 12 8.28117 12C7.91298 12 7.6145 11.7015 7.6145 11.3333C6.50993 11.3333 5.6145 10.4379 5.6145 9.33333C5.6145 8.96514 5.91298 8.66667 6.28117 8.66667C6.64936 8.66667 6.94784 8.96514 6.94784 9.33333C6.94784 9.70152 7.24631 10 7.6145 10H9.11889C9.39261 10 9.6145 9.77811 9.6145 9.50439C9.6145 9.29106 9.478 9.10167 9.27562 9.03421L6.86508 8.2307C6.11825 7.98176 5.6145 7.28284 5.6145 6.49561C5.6145 5.48551 6.43335 4.66667 7.44345 4.66667H7.6145C7.6145 4.29848 7.91298 4 8.28117 4Z"/>
</svg>
