<svg width="19" height="21" viewBox="0 0 19 21" fill="none" xmlns="http://www.w3.org/2000/svg">
    <path fill-rule="evenodd" clip-rule="evenodd"
          d="M17 15H14.5V18.5C14.5 19.33 13.83 20 13 20H2C1.17 20 0.5 19.33 0.5 18.5V7.5C0.5 6.67 1.17 6 2 6H4.5V5.5V2.5C4.5 1.67 5.17 1 6 1H17C17.83 1 18.5 1.67 18.5 2.5V13.5C18.5 14.33 17.83 15 17 15ZM5.5 5.5V6H13C13.83 6 14.5 6.67 14.5 7.5V14H17C17.28 14 17.5 13.78 17.5 13.5V2.5C17.5 2.22 17.28 2 17 2H6C5.72 2 5.5 2.22 5.5 2.5V5.5ZM5 7H2C1.72 7 1.5 7.22 1.5 7.5V18.5C1.5 18.78 1.72 19 2 19H13C13.28 19 13.5 18.78 13.5 18.5V14.5V7.5C13.5 7.22 13.28 7 13 7H5Z"
          fill="url(#paint0_linear_568_9960)"/>
    <path d="M14.5 15V14.5H14V15H14.5ZM4.5 6V6.5H5V6H4.5ZM5.5 6H5V6.5H5.5V6ZM14.5 14H14V14.5H14.5V14ZM14.5 15.5H17V14.5H14.5V15.5ZM15 18.5V15H14V18.5H15ZM13 20.5C14.1061 20.5 15 19.6061 15 18.5H14C14 19.0539 13.5539 19.5 13 19.5V20.5ZM2 20.5H13V19.5H2V20.5ZM0 18.5C0 19.6061 0.893858 20.5 2 20.5V19.5C1.44614 19.5 1 19.0539 1 18.5H0ZM0 7.5V18.5H1V7.5H0ZM2 5.5C0.893858 5.5 0 6.39386 0 7.5H1C1 6.94614 1.44614 6.5 2 6.5V5.5ZM4.5 5.5H2V6.5H4.5V5.5ZM5 6V5.5H4V6H5ZM4 2.5V5.5H5V2.5H4ZM6 0.5C4.89386 0.5 4 1.39386 4 2.5H5C5 1.94614 5.44614 1.5 6 1.5V0.5ZM17 0.5H6V1.5H17V0.5ZM19 2.5C19 1.39386 18.1061 0.5 17 0.5V1.5C17.5539 1.5 18 1.94614 18 2.5H19ZM19 13.5V2.5H18V13.5H19ZM17 15.5C18.1061 15.5 19 14.6061 19 13.5H18C18 14.0539 17.5539 14.5 17 14.5V15.5ZM5 5.5V6H6V5.5H5ZM13 5.5H5.5V6.5H13V5.5ZM15 7.5C15 6.39386 14.1061 5.5 13 5.5V6.5C13.5539 6.5 14 6.94614 14 7.5H15ZM15 14V7.5H14V14H15ZM17 13.5H14.5V14.5H17V13.5ZM17 13.5V14.5C17.5561 14.5 18 14.0561 18 13.5H17ZM17 2.5V13.5H18V2.5H17ZM17 2.5H18C18 1.94386 17.5561 1.5 17 1.5V2.5ZM6 2.5H17V1.5H6V2.5ZM6 2.5V1.5C5.44386 1.5 5 1.94386 5 2.5H6ZM6 5.5V2.5H5V5.5H6ZM5 6.5H2V7.5H5V6.5ZM2 6.5C1.44386 6.5 1 6.94386 1 7.5H2V6.5ZM1 7.5V18.5H2V7.5H1ZM1 18.5C1 19.0561 1.44386 19.5 2 19.5V18.5H1ZM2 19.5H13V18.5H2V19.5ZM13 19.5C13.5561 19.5 14 19.0561 14 18.5H13V19.5ZM14 18.5V14.5H13V18.5H14ZM14 14.5V7.5H13V14.5H14ZM14 7.5C14 6.94386 13.5561 6.5 13 6.5V7.5H14ZM13 6.5H5V7.5H13V6.5Z"
          fill="url(#paint1_linear_568_9960)"/>
    <defs>
        <linearGradient id="paint0_linear_568_9960" x1="9.5" y1="29.5" x2="28.4723" y2="11.5263"
                        gradientUnits="userSpaceOnUse">
            <stop stop-color="#00BC82"/>
            <stop offset="1" stop-color="#00D33C"/>
        </linearGradient>
        <linearGradient id="paint1_linear_568_9960" x1="9.5" y1="29.5" x2="28.4723" y2="11.5263"
                        gradientUnits="userSpaceOnUse">
            <stop stop-color="#00BC82"/>
            <stop offset="1" stop-color="#00D33C"/>
        </linearGradient>
    </defs>
</svg>
