<svg width="20" height="20" viewBox="0 0 20 20" xmlns="http://www.w3.org/2000/svg">
    <path fill-rule="evenodd" clip-rule="evenodd"
          d="M16.6665 10.001C16.6665 6.31908 13.6817 3.33431 9.99984 3.33431C6.31794 3.33431 3.33317 6.31908 3.33317 10.001C3.33317 13.6829 6.31794 16.6676 9.99984 16.6676C13.6817 16.6676 16.6665 13.6829 16.6665 10.001ZM18.3332 10.001C18.3332 5.3986 14.6022 1.66764 9.99984 1.66764C5.39746 1.66764 1.6665 5.3986 1.6665 10.001C1.6665 14.6033 5.39746 18.3343 9.99984 18.3343C14.6022 18.3343 18.3332 14.6033 18.3332 10.001Z"/>
    <path fill-rule="evenodd" clip-rule="evenodd"
          d="M8.08909 6.91172L9.99984 8.82247L11.9106 6.91172C12.236 6.58629 12.7637 6.58629 13.0891 6.91172C13.4145 7.23716 13.4145 7.7648 13.0891 8.09023L11.1783 10.001L13.0891 11.9117C13.4145 12.2372 13.4145 12.7648 13.0891 13.0902C12.7637 13.4157 12.236 13.4157 11.9106 13.0902L9.99984 11.1795L8.08909 13.0902C7.76366 13.4157 7.23602 13.4157 6.91058 13.0902C6.58514 12.7648 6.58514 12.2372 6.91058 11.9117L8.82133 10.001L6.91058 8.09023C6.58514 7.7648 6.58514 7.23716 6.91058 6.91172C7.23602 6.58629 7.76366 6.58629 8.08909 6.91172Z"/>
</svg>
