<svg width="24" height="24" viewBox="0 0 24 24" fill="none" xmlns="http://www.w3.org/2000/svg">
<path d="M17.6679 13.3476L16.9179 13.3367V13.3476H17.6679ZM10.257 13.3476L9.50696 13.3367V13.3476H10.257ZM15.1404 4.00105L15.0105 4.73973L15.0127 4.7401L15.1404 4.00105ZM15.0675 4.03561L14.4163 3.66349L14.4137 3.66808L15.0675 4.03561ZM14.5024 5.19662L14.3913 5.93836L14.9654 6.0243L15.1926 5.49016L14.5024 5.19662ZM9.40347 5.19662L8.71104 5.48479L8.93657 6.0267L9.51679 5.93801L9.40347 5.19662ZM8.82956 4.03561L9.48283 3.66719L9.47888 3.66018L9.47478 3.65326L8.82956 4.03561ZM8.75668 4.00105L8.65175 3.25843L8.64051 3.26002L8.62932 3.26195L8.75668 4.00105ZM4.21659 5.40929L4.51628 6.09681L4.52291 6.09392L4.52948 6.0909L4.21659 5.40929ZM4.18706 5.43505L4.81031 5.85225L4.82147 5.83559L4.83172 5.81835L4.18706 5.43505ZM0.891861 18.1296L0.145105 18.1993L0.145136 18.1996L0.891861 18.1296ZM0.921075 18.1817L0.45822 18.7719L0.46754 18.7792L0.477087 18.7862L0.921075 18.1817ZM6.49025 20.9969L6.2676 21.7131L6.27188 21.7144L6.49025 20.9969ZM6.56847 20.9712L7.1609 21.4311L7.16747 21.4226L7.1738 21.414L6.56847 20.9712ZM7.70781 19.1178L8.3774 19.4557L8.37752 19.4555L7.70781 19.1178ZM7.66917 19.0198L7.93617 18.319L7.93522 18.3186L7.66917 19.0198ZM5.92922 18.1905L5.54811 18.8365L5.55624 18.8412L5.92922 18.1905ZM5.92231 18.0718L6.37007 18.6735L6.37231 18.6718L5.92231 18.0718ZM6.26785 17.801L6.74449 18.3801L6.7515 18.3742L6.26785 17.801ZM6.33978 17.7913L6.65127 17.109L6.64606 17.1067L6.33978 17.7913ZM17.5485 17.7913L17.8631 18.4722L17.8696 18.4691L17.5485 17.7913ZM17.6214 17.8001L18.0988 17.2216L18.0928 17.2167L18.0867 17.2119L17.6214 17.8001ZM17.9679 18.0718L18.4179 17.4718L18.4155 17.4701L17.9679 18.0718ZM17.9616 18.1905L18.3398 18.8382L18.3406 18.8377L17.9616 18.1905ZM16.221 19.0189L15.9561 18.3172L15.954 18.318L16.221 19.0189ZM16.1833 19.1178L15.5158 19.4598L15.5168 19.4617L16.1833 19.1178ZM17.3217 20.9702L17.9336 20.5365L17.9308 20.5326L17.3217 20.9702ZM17.3999 20.9969L17.6183 21.7145L17.6216 21.7134L17.3999 20.9969ZM22.9779 18.1817L23.4219 18.7863L23.4297 18.7804L22.9779 18.1817ZM23.0068 18.1302L22.2603 18.058L22.26 18.0613L23.0068 18.1302ZM19.7094 5.43568L19.042 5.77791L19.0631 5.81908L19.0891 5.85734L19.7094 5.43568ZM15.6634 14.8455C15.0561 14.8455 14.4093 14.2541 14.4093 13.3476H12.9093C12.9093 14.919 14.0731 16.3455 15.6634 16.3455V14.8455ZM14.4093 13.3476C14.4093 12.4367 15.0428 11.8497 15.6634 11.8497V10.3497C14.0519 10.3497 12.9093 11.7807 12.9093 13.3476H14.4093ZM15.6634 11.8497C16.2986 11.8497 16.9309 12.4495 16.9179 13.3367L18.4178 13.3585C18.4407 11.7855 17.2792 10.3497 15.6634 10.3497V11.8497ZM16.9179 13.3476C16.9179 14.2608 16.2915 14.8455 15.6634 14.8455V16.3455C17.2864 16.3455 18.4179 14.9123 18.4179 13.3476H16.9179ZM8.25282 14.8455C7.64539 14.8455 6.99837 14.254 6.99837 13.3476H5.49837C5.49837 14.9191 6.66262 16.3455 8.25282 16.3455V14.8455ZM6.99837 13.3476C6.99837 12.4368 7.6318 11.8497 8.25282 11.8497V10.3497C6.64102 10.3497 5.49837 11.7806 5.49837 13.3476H6.99837ZM8.25282 11.8497C8.88767 11.8497 9.51995 12.4494 9.50704 13.3367L11.0069 13.3585C11.0298 11.7856 9.86838 10.3497 8.25282 10.3497V11.8497ZM9.50696 13.3476C9.50696 14.2586 8.8737 14.8455 8.25282 14.8455V16.3455C9.86477 16.3455 11.007 14.9145 11.007 13.3476H9.50696ZM19.993 4.72766C18.5137 4.04866 16.9274 3.54875 15.2681 3.26201L15.0127 4.7401C16.5417 5.00434 18.0037 5.46503 19.3673 6.09091L19.993 4.72766ZM15.2703 3.26238C14.9317 3.20285 14.5892 3.361 14.4163 3.6635L15.7187 4.40771C15.576 4.65744 15.2919 4.7892 15.0105 4.73972L15.2703 3.26238ZM14.4137 3.66808C14.2013 4.04594 13.9724 4.52646 13.8122 4.90309L15.1926 5.49016C15.3365 5.15184 15.5417 4.72264 15.7213 4.40314L14.4137 3.66808ZM14.6134 4.45489C12.8264 4.18734 11.045 4.18699 9.29015 4.45524L9.51679 5.93801C11.1199 5.69297 12.75 5.69262 14.3913 5.93836L14.6134 4.45489ZM10.0959 4.90846C9.92978 4.50929 9.6903 4.03507 9.48283 3.66719L8.17629 4.40403C8.3621 4.73351 8.57308 5.1533 8.71104 5.48479L10.0959 4.90846ZM9.47478 3.65326C9.29979 3.35796 8.96962 3.21351 8.65175 3.25843L8.86162 4.74368C8.60154 4.78043 8.32917 4.66236 8.18434 4.41796L9.47478 3.65326ZM8.62932 3.26195C6.97055 3.54778 5.38414 4.04809 3.9037 4.72767L4.52948 6.0909C5.89442 5.46434 7.3563 5.00342 8.88404 4.74016L8.62932 3.26195ZM3.9169 4.72177C3.76935 4.78609 3.63433 4.89714 3.54241 5.05174L4.83172 5.81835C4.75361 5.9497 4.63933 6.04317 4.51628 6.09681L3.9169 4.72177ZM3.56381 5.01784C0.569819 9.49046 -0.258047 13.8784 0.145105 18.1993L1.63862 18.0599C1.26525 14.0582 2.02121 10.0188 4.81031 5.85225L3.56381 5.01784ZM0.145136 18.1996C0.167764 18.441 0.293522 18.6427 0.45822 18.7719L1.38393 17.5916C1.51659 17.6956 1.61973 17.8584 1.63859 18.0596L0.145136 18.1996ZM0.477087 18.7862C2.45829 20.2414 4.38276 21.1272 6.2676 21.7131L6.7129 20.2808C4.97018 19.739 3.19863 18.9241 1.36506 17.5773L0.477087 18.7862ZM6.27188 21.7144C6.61556 21.819 6.96295 21.6861 7.1609 21.4311L5.97603 20.5113C6.13692 20.304 6.42274 20.1924 6.70862 20.2794L6.27188 21.7144ZM7.1738 21.414C7.62523 20.7969 8.02975 20.1447 8.3774 19.4557L7.03822 18.78C6.72997 19.3909 6.36928 19.9732 5.96314 20.5284L7.1738 21.414ZM8.37752 19.4555C8.60268 19.0088 8.37916 18.4877 7.93617 18.319L7.40217 19.7207C7.03834 19.5821 6.85126 19.1508 7.0381 18.7802L8.37752 19.4555ZM7.93522 18.3186C7.36986 18.1041 6.8282 17.8414 6.30219 17.5398L5.55624 18.8412C6.14162 19.1768 6.75469 19.475 7.40313 19.7211L7.93522 18.3186ZM6.31029 17.5446C6.72012 17.7863 6.76748 18.3777 6.37006 18.6735L5.47455 17.4701C4.99608 17.8262 5.05098 18.5432 5.54814 18.8365L6.31029 17.5446ZM6.37231 18.6718C6.4965 18.5786 6.62242 18.4805 6.74446 18.3801L5.79124 17.2219C5.68961 17.3056 5.58182 17.3896 5.47231 17.4718L6.37231 18.6718ZM6.7515 18.3742C6.54365 18.5496 6.26296 18.5785 6.03351 18.4759L6.64606 17.1067C6.36885 16.9826 6.03226 17.0185 5.78419 17.2278L6.7515 18.3742ZM6.0283 18.4735C9.87512 20.2298 14.0552 20.2313 17.863 18.4721L17.2339 17.1104C13.8276 18.6841 10.1048 18.6857 6.65126 17.109L6.0283 18.4735ZM17.8696 18.4691C17.6277 18.5836 17.3519 18.5432 17.1561 18.3883L18.0867 17.2119C17.8488 17.0237 17.517 16.9763 17.2274 17.1135L17.8696 18.4691ZM17.144 18.3785C17.2649 18.4783 17.3919 18.5781 17.5202 18.6735L18.4155 17.4701C18.3082 17.3902 18.2009 17.3059 18.0988 17.2216L17.144 18.3785ZM17.5179 18.6718C17.1414 18.3895 17.1509 17.7962 17.5825 17.5434L18.3406 18.8377C18.8602 18.5333 18.8747 17.8144 18.4179 17.4718L17.5179 18.6718ZM17.5834 17.5429C17.0644 17.8459 16.525 18.1025 15.9561 18.3172L16.4858 19.7206C17.132 19.4767 17.7473 19.1841 18.3398 18.8382L17.5834 17.5429ZM15.954 18.318C15.4943 18.4931 15.294 19.0269 15.5158 19.4598L16.8508 18.7758C17.0336 19.1327 16.8686 19.5748 16.488 19.7197L15.954 18.318ZM15.5168 19.4617C15.8695 20.1453 16.2716 20.7941 16.7126 21.4079L17.9308 20.5326C17.5299 19.9747 17.1668 19.3883 16.8498 18.7739L15.5168 19.4617ZM16.7098 21.404C16.9153 21.6939 17.2823 21.8167 17.6183 21.7144L17.1815 20.2794C17.4597 20.1948 17.7632 20.2962 17.9336 20.5365L16.7098 21.404ZM17.6216 21.7134C19.5155 21.1274 21.4402 20.2415 23.4218 18.7862L22.5339 17.5772C20.7001 18.924 18.9288 19.7388 17.1782 20.2805L17.6216 21.7134ZM23.4297 18.7804C23.6124 18.6424 23.732 18.4328 23.7536 18.1992L22.26 18.0613C22.2778 17.8685 22.3766 17.6959 22.5261 17.5831L23.4297 18.7804ZM23.7533 18.2024C24.2366 13.2041 22.9391 8.85241 20.3296 5.01401L19.0891 5.85734C21.517 9.42859 22.7074 13.4345 22.2603 18.058L23.7533 18.2024ZM20.3767 5.09344C20.2797 4.90414 20.1247 4.78328 19.9735 4.71904L19.3868 6.09954C19.2608 6.04597 19.1265 5.94271 19.042 5.77791L20.3767 5.09344Z" fill="url(#paint0_linear_198_5624)"/>
<defs>
<linearGradient id="paint0_linear_198_5624" x1="11.9513" y1="29.5" x2="28.3434" y2="7.99448" gradientUnits="userSpaceOnUse">
<stop stop-color="#00BC82"/>
<stop offset="1" stop-color="#00D33C"/>
</linearGradient>
</defs>
</svg>
