<svg width="17" height="17" viewBox="0 0 17 17" fill="none" xmlns="http://www.w3.org/2000/svg">
<path fill-rule="evenodd" clip-rule="evenodd" d="M3.16667 14.0614H13.8333C14.2015 14.0614 14.5 14.3599 14.5 14.7281C14.5 15.0963 14.2015 15.3947 13.8333 15.3947H3.16667C2.79848 15.3947 2.5 15.0963 2.5 14.7281C2.5 14.3599 2.79848 14.0614 3.16667 14.0614Z" fill="#FCFCFD"/>
<path fill-rule="evenodd" clip-rule="evenodd" d="M10.6953 2.14224L10.1095 2.72801L12.5 5.11853L13.0858 4.53277C13.3461 4.27242 13.3461 3.85031 13.0858 3.58996L11.6381 2.14224C11.3777 1.88189 10.9556 1.88189 10.6953 2.14224ZM9.16669 3.67082L11.5572 6.06134L7.50002 10.1185L5.1095 7.72801L9.16669 3.67082ZM3.83333 9.00417V11.3947H6.22386L6.55721 11.0613L4.16669 8.67082L3.83333 9.00417ZM12.5809 1.19943L14.0286 2.64715C14.8096 3.4282 14.8096 4.69453 14.0286 5.47558L7.16667 12.3375C6.91662 12.5876 6.57748 12.728 6.22386 12.728H3.83333C3.09695 12.728 2.5 12.1311 2.5 11.3947V9.00417C2.5 8.65055 2.64048 8.31141 2.89052 8.06136L9.75245 1.19943C10.5335 0.418385 11.7998 0.418385 12.5809 1.19943Z" fill="#FCFCFD"/>
</svg>
