<svg width="24" height="19" viewBox="0 0 24 19" fill="none" xmlns="http://www.w3.org/2000/svg">
<path d="M20.8066 18.9505C20.5948 18.9509 20.3917 18.8675 20.2423 18.7191L2.67885 1.34763C2.38065 1.03719 2.38698 0.548226 2.69312 0.245432C2.99926 -0.0573616 3.49362 -0.0636219 3.8075 0.23132L21.3709 17.6027C21.5991 17.8286 21.6673 18.1681 21.5438 18.463C21.4203 18.758 21.1294 18.9504 20.8066 18.9505Z" fill="#9BA1B3"/>
<path d="M12.0079 15.7921C9.93772 15.7921 7.94138 15.186 6.07427 13.9908C4.37431 12.9051 2.844 11.35 1.64849 9.49986V9.49591C2.64342 8.08596 3.73315 6.89365 4.90371 5.9323C4.92512 5.9146 4.93806 5.88884 4.93938 5.86127C4.94071 5.8337 4.93031 5.80684 4.9107 5.78721L3.91677 4.80563C3.88014 4.7691 3.8213 4.76652 3.78155 4.7997C2.53814 5.83607 1.38404 7.10734 0.33473 8.59576C-0.0344984 9.11991 -0.0471123 9.81272 0.302797 10.3497C1.62055 12.3893 3.31652 14.1072 5.20658 15.3168C7.33465 16.6804 9.62488 17.3713 12.0079 17.3713C13.2942 17.3673 14.5714 17.1577 15.79 16.7505C15.8227 16.7395 15.8474 16.7126 15.8552 16.6793C15.863 16.6461 15.8529 16.6112 15.8285 16.5871L14.7517 15.5221C14.7013 15.4735 14.6286 15.4547 14.5606 15.4728C13.7267 15.6852 12.869 15.7924 12.0079 15.7921Z" fill="#9BA1B3"/>
<path d="M23.7425 8.6165C22.4222 6.59708 20.7093 4.88165 18.7893 3.65528C16.6652 2.29715 14.3201 1.5791 12.0079 1.5791C10.7353 1.58133 9.47206 1.79538 8.27122 2.21227C8.23869 2.22347 8.2143 2.25046 8.20669 2.28368C8.19908 2.3169 8.20933 2.35165 8.2338 2.37562L9.30906 3.43913C9.36001 3.48866 9.43384 3.50749 9.50266 3.48848C10.3194 3.26994 11.1618 3.15893 12.0079 3.15832C14.0382 3.15832 16.0286 3.77175 17.9231 4.9843C19.655 6.08975 21.2033 7.64331 22.4018 9.47521C22.4036 9.47753 22.4036 9.48078 22.4018 9.4831C21.5318 10.8377 20.4522 12.0489 19.2024 13.0724C19.1808 13.09 19.1677 13.1158 19.1662 13.1435C19.1648 13.1712 19.1752 13.1982 19.195 13.218L20.1879 14.1995C20.2243 14.2359 20.2828 14.2387 20.3226 14.206C21.6568 13.0948 22.8118 11.7888 23.7475 10.3329C24.0852 9.80902 24.0833 9.13847 23.7425 8.6165Z" fill="#9BA1B3"/>
<path d="M12.0249 4.73752C11.6661 4.73733 11.3084 4.77706 10.9586 4.85596C10.9226 4.86335 10.8936 4.88973 10.8832 4.9246C10.8728 4.95947 10.8826 4.99719 10.9087 5.02277L16.5265 10.5777C16.5524 10.6035 16.5905 10.6132 16.6257 10.6029C16.661 10.5926 16.6877 10.5639 16.6951 10.5283C17.0191 9.12278 16.6785 7.64781 15.7696 6.52083C14.8607 5.39384 13.4824 4.73749 12.0249 4.73752Z" fill="#9BA1B3"/>
<path d="M7.52327 8.3727C7.49741 8.34685 7.45927 8.33716 7.42401 8.34747C7.38876 8.35779 7.36209 8.38645 7.35462 8.42205C6.98679 10.0114 7.47114 11.6762 8.63682 12.8292C9.8025 13.9821 11.4857 14.4612 13.0927 14.0974C13.1287 14.09 13.1576 14.0636 13.1681 14.0287C13.1785 13.9939 13.1687 13.9561 13.1426 13.9306L7.52327 8.3727Z" fill="#9BA1B3"/>
</svg>
