<svg width="489" height="546" viewBox="0 0 489 546" fill="none" xmlns="http://www.w3.org/2000/svg">
<g filter="url(#filter0_f_239_26116)">
<path fill-rule="evenodd" clip-rule="evenodd" d="M295.721 273.797C295.721 290.23 272.479 303.551 243.808 303.551C215.137 303.551 191.895 290.23 191.895 273.797C191.895 257.365 215.137 244.044 243.808 244.044C272.479 244.044 295.721 257.365 295.721 273.797Z" fill="#2CD138" fill-opacity="0.68"/>
</g>
<g opacity="0.45">
<path fill-rule="evenodd" clip-rule="evenodd" d="M340.815 352.462C314.456 353.7 302.681 342.829 306.058 330.09C306.058 330.09 311.514 315.181 300.853 308.135C290.193 301.09 280.612 297.578 256.128 293.63C231.644 289.682 242.596 275.663 257.962 269.969C273.328 264.276 315.532 255.846 349.695 268.993C383.858 282.14 393.789 294.527 391.659 312.926C389.529 331.325 367.174 351.225 340.815 352.462Z" fill="#0D1241"/>
<path fill-rule="evenodd" clip-rule="evenodd" d="M340.123 348.315C313.764 349.553 301.989 338.682 305.366 325.943C305.366 325.943 310.821 311.034 300.161 303.988C289.501 296.943 279.92 293.431 255.436 289.483C230.952 285.535 241.904 271.516 257.27 265.822C272.635 260.129 314.84 251.699 349.003 264.846C383.165 277.993 393.097 290.38 390.967 308.779C388.837 327.178 366.482 347.078 340.123 348.315Z" fill="#0A0629"/>
</g>
<g opacity="0.45">
<path fill-rule="evenodd" clip-rule="evenodd" d="M156.689 337.384C202.544 339.528 223.026 320.692 217.152 298.617C217.152 298.617 207.662 272.783 226.206 260.574C244.75 248.365 261.418 242.281 304.01 235.44C346.601 228.598 327.549 204.306 300.819 194.44C274.089 184.575 200.671 169.968 141.243 192.749C81.8141 215.529 64.5367 236.993 68.2423 268.875C71.9478 300.757 110.835 335.24 156.689 337.384Z" fill="#0D1241"/>
<path fill-rule="evenodd" clip-rule="evenodd" d="M156.919 330.275C202.773 332.418 223.256 313.582 217.382 291.508C217.382 291.508 207.892 265.674 226.436 253.465C244.98 241.256 261.647 235.172 304.239 228.33C346.831 221.489 327.779 197.196 301.049 187.331C274.319 177.465 200.901 162.859 141.472 185.639C82.0438 208.42 64.7664 229.884 68.472 261.766C72.1776 293.648 111.065 328.131 156.919 330.275Z" fill="#0A0629"/>
</g>
<path opacity="0.1" d="M81.0178 161.509L247.535 267.733L424.124 161.509" stroke="url(#paint0_linear_239_26116)" stroke-width="4" stroke-linecap="round" stroke-linejoin="round"/>
<path opacity="0.1" d="M72.6647 386.751L238.804 276.531L418.566 382.218" stroke="url(#paint1_linear_239_26116)" stroke-width="4" stroke-linecap="round" stroke-linejoin="round"/>
<path opacity="0.1" d="M69.3998 154.841L250.982 53.0713L64.826 373.348" stroke="url(#paint2_linear_239_26116)" stroke-width="4" stroke-linecap="round" stroke-linejoin="round"/>
<path opacity="0.1" d="M415.12 150.629L263.61 58.1523L424.585 374.047" stroke="url(#paint3_linear_239_26116)" stroke-width="4" stroke-linecap="round" stroke-linejoin="round"/>
<path opacity="0.1" d="M79.3457 393.135L243.472 487.584L66.6987 163.462" stroke="url(#paint4_linear_239_26116)" stroke-width="4" stroke-linecap="round" stroke-linejoin="round"/>
<path opacity="0.1" d="M409.563 392.588L262.377 483.84L433.896 157.663" stroke="url(#paint5_linear_239_26116)" stroke-width="4" stroke-linecap="round" stroke-linejoin="round"/>
<path d="M210.457 124.227L197.337 149.141" stroke="url(#paint6_linear_239_26116)" stroke-width="4" stroke-linecap="round" stroke-linejoin="round"/>
<path d="M294.783 240.828L318.503 224.754" stroke="url(#paint7_linear_239_26116)" stroke-width="4" stroke-linecap="round" stroke-linejoin="round"/>
<path d="M330.669 101.199L353.765 112.365" stroke="url(#paint8_linear_239_26116)" stroke-width="4" stroke-linecap="round" stroke-linejoin="round"/>
<path d="M108.033 132.349L128.568 121.318" stroke="url(#paint9_linear_239_26116)" stroke-width="4" stroke-linecap="round" stroke-linejoin="round"/>
<path d="M135.941 292.314L147.79 310.605" stroke="url(#paint10_linear_239_26116)" stroke-width="4" stroke-linecap="round" stroke-linejoin="round"/>
<path d="M133.04 426.957L162.593 443.008" stroke="url(#paint11_linear_239_26116)" stroke-width="4" stroke-linecap="round" stroke-linejoin="round"/>
<path d="M360.594 426.349L378.148 414.725" stroke="url(#paint12_linear_239_26116)" stroke-width="4" stroke-linecap="round" stroke-linejoin="round"/>
<path d="M303.219 408.136L323.096 368.611" stroke="url(#paint13_linear_239_26116)" stroke-width="4" stroke-linecap="round" stroke-linejoin="round"/>
<path d="M291.064 308.781L306.893 317.33" stroke="url(#paint14_linear_239_26116)" stroke-width="4" stroke-linecap="round" stroke-linejoin="round"/>
<path d="M176.973 319.483L195.431 306.533" stroke="url(#paint15_linear_239_26116)" stroke-width="4" stroke-linecap="round" stroke-linejoin="round"/>
<path d="M113.163 182.951L132.529 194.061" stroke="url(#paint16_linear_239_26116)" stroke-width="4" stroke-linecap="round" stroke-linejoin="round"/>
<path d="M352.691 233.567L362.852 250.994" stroke="url(#paint17_linear_239_26116)" stroke-width="4" stroke-linecap="round" stroke-linejoin="round"/>
<g filter="url(#filter1_f_239_26116)">
<path fill-rule="evenodd" clip-rule="evenodd" d="M220.444 261.443L215.482 276.462C215.032 277.825 215.58 279.318 216.806 280.067L231.947 288.759C233.352 289.618 235.006 289.981 236.643 289.79L265.366 286.448C266.541 286.311 267.536 285.516 267.927 284.401L273.153 269.51C273.645 268.108 273.068 266.555 271.78 265.813L256.454 256.976C255.087 256.188 253.502 255.859 251.933 256.038L223.03 259.342C221.832 259.479 220.823 260.299 220.444 261.443Z" fill="#2CD138" fill-opacity="0.39"/>
</g>
<path fill-rule="evenodd" clip-rule="evenodd" d="M273.153 266.225L267.927 281.117C267.536 282.232 266.541 283.027 265.365 283.163L236.642 286.506C235.006 286.696 233.352 286.333 231.947 285.475L216.805 276.782C215.974 276.275 215.457 275.426 215.348 274.507L215.326 272.178C215.408 273.146 215.935 270.761 216.805 271.292L231.947 279.985C233.352 280.843 235.006 281.206 236.642 281.016L265.365 277.673C266.541 277.536 267.536 276.741 267.927 275.626L273.153 263.157C273.226 262.948 273.327 264.8 273.327 264.8C273.327 264.8 273.268 265.897 273.153 266.225Z" fill="#B1BAC9"/>
<mask id="mask0_239_26116" style="mask-type:alpha" maskUnits="userSpaceOnUse" x="215" y="251" width="59" height="35">
<path fill-rule="evenodd" clip-rule="evenodd" d="M215.326 251.162H273.328V285.01H215.326V251.162Z" fill="white"/>
</mask>
<g mask="url(#mask0_239_26116)">
<path fill-rule="evenodd" clip-rule="evenodd" d="M220.444 256.613L215.482 271.633C215.032 272.995 215.58 274.488 216.806 275.237L231.947 283.93C233.352 284.788 235.006 285.151 236.643 284.961L265.366 281.618C266.541 281.481 267.536 280.687 267.927 279.571L273.153 264.68C273.645 263.278 273.068 261.726 271.78 260.983L256.454 252.147C255.087 251.358 253.502 251.03 251.933 251.209L223.03 254.512C221.832 254.649 220.823 255.469 220.444 256.613Z" fill="white"/>
</g>
<g filter="url(#filter2_f_239_26116)">
<path fill-rule="evenodd" clip-rule="evenodd" d="M220.444 46.9206L215.482 61.9405C215.032 63.3029 215.58 64.7961 216.806 65.5448L231.947 74.2373C233.352 75.0956 235.006 75.4586 236.643 75.2682L265.366 71.9258C266.541 71.7889 267.536 70.9941 267.927 69.8791L273.153 54.9876C273.645 53.5856 273.068 52.0332 271.78 51.2906L256.454 42.4542C255.087 41.666 253.502 41.3372 251.933 41.5164L223.03 44.8198C221.832 44.9571 220.823 45.7768 220.444 46.9206Z" fill="#2CD138" fill-opacity="0.39"/>
</g>
<path fill-rule="evenodd" clip-rule="evenodd" d="M273.153 51.7032L267.927 66.5947C267.536 67.7097 266.541 68.5045 265.365 68.6414L236.642 71.9838C235.006 72.1743 233.352 71.8112 231.947 70.9529L216.805 62.2604C215.974 61.753 215.457 60.9041 215.348 59.9851L215.326 57.6562C215.408 58.6236 215.935 56.2387 216.805 56.7702L231.947 65.4627C233.352 66.321 235.006 66.684 236.642 66.4936L265.365 63.1512C266.541 63.0143 267.536 62.2195 267.927 61.1044L273.153 48.6349C273.226 48.4261 273.327 50.2782 273.327 50.2782C273.327 50.2782 273.268 51.3754 273.153 51.7032Z" fill="#B1BAC9"/>
<mask id="mask1_239_26116" style="mask-type:alpha" maskUnits="userSpaceOnUse" x="215" y="36" width="59" height="35">
<path fill-rule="evenodd" clip-rule="evenodd" d="M215.326 36.6396H273.328V70.4883H215.326V36.6396Z" fill="white"/>
</mask>
<g mask="url(#mask1_239_26116)">
<path fill-rule="evenodd" clip-rule="evenodd" d="M220.444 42.091L215.482 57.1109C215.032 58.4733 215.58 59.9665 216.806 60.7152L231.947 69.4077C233.352 70.266 235.006 70.6291 236.643 70.4386L265.366 67.0962C266.541 66.9593 267.536 66.1645 267.927 65.0495L273.153 50.158C273.645 48.756 273.068 47.2036 271.78 46.461L256.454 37.6246C255.087 36.8364 253.502 36.5077 251.933 36.6868L223.03 39.9902C221.832 40.1275 220.823 40.9473 220.444 42.091Z" fill="white"/>
</g>
<g filter="url(#filter3_f_239_26116)">
<path fill-rule="evenodd" clip-rule="evenodd" d="M46.1184 150.398L41.1562 165.418C40.7059 166.78 41.2541 168.273 42.4796 169.022L57.6211 177.714C59.0265 178.573 60.6801 178.936 62.3172 178.745L91.0397 175.403C92.2152 175.266 93.21 174.471 93.6013 173.356L98.8273 158.465C99.3195 157.063 98.7425 155.51 97.4544 154.768L82.1283 145.931C80.7611 145.143 79.1763 144.814 77.6074 144.993L48.7045 148.297C47.5059 148.434 46.4971 149.254 46.1184 150.398Z" fill="#2CD138" fill-opacity="0.39"/>
</g>
<path fill-rule="evenodd" clip-rule="evenodd" d="M98.827 155.18L93.6011 170.072C93.2097 171.187 92.215 171.982 91.0394 172.118L62.3164 175.461C60.6798 175.651 59.0262 175.288 57.6208 174.43L42.4793 165.737C41.6485 165.23 41.1309 164.381 41.0221 163.462L41 161.133C41.0824 162.101 41.609 159.716 42.4793 160.247L57.6208 168.94C59.0262 169.798 60.6798 170.161 62.3164 169.971L91.0394 166.628C92.215 166.491 93.2097 165.697 93.6011 164.581L98.827 152.112C98.9 151.903 99.0013 153.755 99.0013 153.755C99.0013 153.755 98.9419 154.852 98.827 155.18Z" fill="#B1BAC9"/>
<mask id="mask2_239_26116" style="mask-type:alpha" maskUnits="userSpaceOnUse" x="41" y="140" width="59" height="34">
<path fill-rule="evenodd" clip-rule="evenodd" d="M41 140.117H99.0017V173.965H41V140.117Z" fill="white"/>
</mask>
<g mask="url(#mask2_239_26116)">
<path fill-rule="evenodd" clip-rule="evenodd" d="M46.1184 145.568L41.1562 160.588C40.7059 161.95 41.2541 163.444 42.4796 164.192L57.6211 172.885C59.0265 173.743 60.6801 174.106 62.3172 173.916L91.0397 170.573C92.2152 170.436 93.21 169.642 93.6013 168.527L98.8273 153.635C99.3195 152.233 98.7425 150.681 97.4544 149.938L82.1283 141.102C80.7611 140.313 79.1763 139.985 77.6074 140.164L48.7045 143.467C47.5059 143.605 46.4971 144.424 46.1184 145.568Z" fill="white"/>
</g>
<g filter="url(#filter4_f_239_26116)">
<path fill-rule="evenodd" clip-rule="evenodd" d="M394.77 150.398L389.808 165.418C389.358 166.78 389.906 168.273 391.132 169.022L406.273 177.714C407.679 178.573 409.332 178.936 410.969 178.745L439.692 175.403C440.867 175.266 441.862 174.471 442.253 173.356L447.479 158.465C447.972 157.063 447.395 155.51 446.106 154.768L430.78 145.931C429.413 145.143 427.828 144.814 426.26 144.993L397.357 148.297C396.158 148.434 395.149 149.254 394.77 150.398Z" fill="#2CD138" fill-opacity="0.39"/>
</g>
<path fill-rule="evenodd" clip-rule="evenodd" d="M447.479 155.18L442.253 170.072C441.862 171.187 440.867 171.982 439.692 172.118L410.969 175.461C409.332 175.651 407.678 175.288 406.273 174.43L391.131 165.737C390.301 165.23 389.783 164.381 389.674 163.462L389.652 161.133C389.735 162.101 390.261 159.716 391.131 160.247L406.273 168.94C407.678 169.798 409.332 170.161 410.969 169.971L439.692 166.628C440.867 166.491 441.862 165.697 442.253 164.581L447.479 152.112C447.552 151.903 447.653 153.755 447.653 153.755C447.653 153.755 447.594 154.852 447.479 155.18Z" fill="#B1BAC9"/>
<mask id="mask3_239_26116" style="mask-type:alpha" maskUnits="userSpaceOnUse" x="389" y="140" width="59" height="34">
<path fill-rule="evenodd" clip-rule="evenodd" d="M389.652 140.117H447.654V173.965H389.652V140.117Z" fill="white"/>
</mask>
<g mask="url(#mask3_239_26116)">
<path fill-rule="evenodd" clip-rule="evenodd" d="M394.77 145.568L389.808 160.588C389.358 161.95 389.906 163.444 391.132 164.192L406.273 172.885C407.679 173.743 409.332 174.106 410.969 173.916L439.692 170.573C440.867 170.436 441.862 169.642 442.253 168.527L447.479 153.635C447.972 152.233 447.395 150.681 446.106 149.938L430.78 141.102C429.413 140.313 427.828 139.985 426.26 140.164L397.357 143.467C396.158 143.605 395.149 144.424 394.77 145.568Z" fill="white"/>
</g>
<g filter="url(#filter5_f_239_26116)">
<path fill-rule="evenodd" clip-rule="evenodd" d="M46.1184 374.76L41.1562 389.78C40.7059 391.142 41.2541 392.635 42.4796 393.384L57.6211 402.077C59.0265 402.935 60.6801 403.298 62.3172 403.108L91.0397 399.765C92.2152 399.628 93.21 398.833 93.6013 397.718L98.8273 382.827C99.3195 381.425 98.7425 379.873 97.4544 379.13L82.1283 370.294C80.7611 369.505 79.1763 369.177 77.6074 369.356L48.7045 372.659C47.5059 372.796 46.4971 373.616 46.1184 374.76Z" fill="#2CD138" fill-opacity="0.39"/>
</g>
<path fill-rule="evenodd" clip-rule="evenodd" d="M98.827 379.543L93.6011 394.434C93.2097 395.549 92.215 396.344 91.0394 396.481L62.3164 399.823C60.6798 400.014 59.0262 399.651 57.6208 398.792L42.4793 390.1C41.6485 389.592 41.1309 388.743 41.0221 387.824L41 385.496C41.0824 386.463 41.609 384.078 42.4793 384.61L57.6208 393.302C59.0262 394.16 60.6798 394.523 62.3164 394.333L91.0394 390.991C92.215 390.854 93.2097 390.059 93.6011 388.944L98.827 376.474C98.9 376.265 99.0013 378.118 99.0013 378.118C99.0013 378.118 98.9419 379.215 98.827 379.543Z" fill="#B1BAC9"/>
<mask id="mask4_239_26116" style="mask-type:alpha" maskUnits="userSpaceOnUse" x="41" y="364" width="59" height="35">
<path fill-rule="evenodd" clip-rule="evenodd" d="M41 364.479H99.0017V398.328H41V364.479Z" fill="white"/>
</mask>
<g mask="url(#mask4_239_26116)">
<path fill-rule="evenodd" clip-rule="evenodd" d="M46.1184 369.93L41.1562 384.95C40.7059 386.313 41.2541 387.806 42.4796 388.555L57.6211 397.247C59.0265 398.105 60.6801 398.468 62.3172 398.278L91.0397 394.936C92.2152 394.799 93.21 394.004 93.6013 392.889L98.8273 377.997C99.3195 376.595 98.7425 375.043 97.4544 374.3L82.1283 365.464C80.7611 364.676 79.1763 364.347 77.6074 364.526L48.7045 367.83C47.5059 367.967 46.4971 368.787 46.1184 369.93Z" fill="white"/>
</g>
<g filter="url(#filter6_f_239_26116)">
<path fill-rule="evenodd" clip-rule="evenodd" d="M394.77 374.76L389.808 389.78C389.358 391.142 389.906 392.635 391.132 393.384L406.273 402.077C407.679 402.935 409.332 403.298 410.969 403.108L439.692 399.765C440.867 399.628 441.862 398.833 442.253 397.718L447.479 382.827C447.972 381.425 447.395 379.873 446.106 379.13L430.78 370.294C429.413 369.505 427.828 369.177 426.26 369.356L397.357 372.659C396.158 372.796 395.149 373.616 394.77 374.76Z" fill="#2CD138" fill-opacity="0.39"/>
</g>
<path fill-rule="evenodd" clip-rule="evenodd" d="M447.479 379.543L442.253 394.434C441.862 395.549 440.867 396.344 439.692 396.481L410.969 399.823C409.332 400.014 407.678 399.651 406.273 398.792L391.131 390.1C390.301 389.592 389.783 388.743 389.674 387.824L389.652 385.496C389.735 386.463 390.261 384.078 391.131 384.61L406.273 393.302C407.678 394.16 409.332 394.523 410.969 394.333L439.692 390.991C440.867 390.854 441.862 390.059 442.253 388.944L447.479 376.474C447.552 376.265 447.653 378.118 447.653 378.118C447.653 378.118 447.594 379.215 447.479 379.543Z" fill="#B1BAC9"/>
<mask id="mask5_239_26116" style="mask-type:alpha" maskUnits="userSpaceOnUse" x="389" y="364" width="59" height="35">
<path fill-rule="evenodd" clip-rule="evenodd" d="M389.652 364.479H447.654V398.328H389.652V364.479Z" fill="white"/>
</mask>
<g mask="url(#mask5_239_26116)">
<path fill-rule="evenodd" clip-rule="evenodd" d="M394.77 369.93L389.808 384.95C389.358 386.313 389.906 387.806 391.132 388.555L406.273 397.247C407.679 398.105 409.332 398.468 410.969 398.278L439.692 394.936C440.867 394.799 441.862 394.004 442.253 392.889L447.479 377.997C447.972 376.595 447.395 375.043 446.106 374.3L430.78 365.464C429.413 364.676 427.828 364.347 426.26 364.526L397.357 367.83C396.158 367.967 395.149 368.787 394.77 369.93Z" fill="white"/>
</g>
<g filter="url(#filter7_f_239_26116)">
<path fill-rule="evenodd" clip-rule="evenodd" d="M215.482 491.323C215.032 492.685 215.58 494.178 216.806 494.927L231.947 503.62C233.352 504.478 235.006 504.841 236.643 504.65L265.366 501.308C266.541 501.171 267.536 500.376 267.927 499.261L273.153 484.37C273.645 482.968 273.068 481.416 271.78 480.673L256.454 471.837C255.087 471.048 253.502 470.72 251.933 470.899L223.03 474.202C221.832 474.339 220.823 475.159 220.444 476.303L215.482 491.323Z" fill="#2CD138" fill-opacity="0.39"/>
</g>
<path fill-rule="evenodd" clip-rule="evenodd" d="M273.153 481.086L267.927 495.977C267.536 497.092 266.541 497.887 265.365 498.024L236.642 501.366C235.006 501.557 233.352 501.194 231.947 500.335L216.805 491.643C215.974 491.135 215.457 490.286 215.348 489.367L215.326 487.039C215.408 488.006 215.935 485.621 216.805 486.153L231.947 494.845C233.352 495.703 235.006 496.066 236.642 495.876L265.365 492.533C266.541 492.397 267.536 491.602 267.927 490.487L273.153 478.017C273.226 477.808 273.327 479.661 273.327 479.661C273.327 479.661 273.268 480.758 273.153 481.086Z" fill="#B1BAC9"/>
<mask id="mask6_239_26116" style="mask-type:alpha" maskUnits="userSpaceOnUse" x="215" y="466" width="59" height="34">
<path fill-rule="evenodd" clip-rule="evenodd" d="M215.326 466.022H273.328V499.871H215.326V466.022Z" fill="white"/>
</mask>
<g mask="url(#mask6_239_26116)">
<path fill-rule="evenodd" clip-rule="evenodd" d="M220.444 471.473L215.482 486.493C215.032 487.856 215.58 489.349 216.806 490.098L231.947 498.79C233.352 499.648 235.006 500.011 236.643 499.821L265.366 496.479C266.541 496.342 267.536 495.547 267.927 494.432L273.153 479.54C273.645 478.138 273.068 476.586 271.78 475.843L256.454 467.007C255.087 466.219 253.502 465.89 251.933 466.069L223.03 469.373C221.832 469.51 220.823 470.33 220.444 471.473Z" fill="white"/>
</g>
<defs>
<filter id="filter0_f_239_26116" x="151.12" y="203.27" width="185.375" height="141.055" filterUnits="userSpaceOnUse" color-interpolation-filters="sRGB">
<feFlood flood-opacity="0" result="BackgroundImageFix"/>
<feBlend mode="normal" in="SourceGraphic" in2="BackgroundImageFix" result="shape"/>
<feGaussianBlur stdDeviation="20.3871" result="effect1_foregroundBlur_239_26116"/>
</filter>
<filter id="filter1_f_239_26116" x="174.552" y="215.216" width="139.55" height="115.397" filterUnits="userSpaceOnUse" color-interpolation-filters="sRGB">
<feFlood flood-opacity="0" result="BackgroundImageFix"/>
<feBlend mode="normal" in="SourceGraphic" in2="BackgroundImageFix" result="shape"/>
<feGaussianBlur stdDeviation="20.3871" result="effect1_foregroundBlur_239_26116"/>
</filter>
<filter id="filter2_f_239_26116" x="174.552" y="0.694523" width="139.55" height="115.398" filterUnits="userSpaceOnUse" color-interpolation-filters="sRGB">
<feFlood flood-opacity="0" result="BackgroundImageFix"/>
<feBlend mode="normal" in="SourceGraphic" in2="BackgroundImageFix" result="shape"/>
<feGaussianBlur stdDeviation="20.3871" result="effect1_foregroundBlur_239_26116"/>
</filter>
<filter id="filter3_f_239_26116" x="0.225773" y="104.172" width="139.55" height="115.398" filterUnits="userSpaceOnUse" color-interpolation-filters="sRGB">
<feFlood flood-opacity="0" result="BackgroundImageFix"/>
<feBlend mode="normal" in="SourceGraphic" in2="BackgroundImageFix" result="shape"/>
<feGaussianBlur stdDeviation="20.3871" result="effect1_foregroundBlur_239_26116"/>
</filter>
<filter id="filter4_f_239_26116" x="348.878" y="104.172" width="139.55" height="115.398" filterUnits="userSpaceOnUse" color-interpolation-filters="sRGB">
<feFlood flood-opacity="0" result="BackgroundImageFix"/>
<feBlend mode="normal" in="SourceGraphic" in2="BackgroundImageFix" result="shape"/>
<feGaussianBlur stdDeviation="20.3871" result="effect1_foregroundBlur_239_26116"/>
</filter>
<filter id="filter5_f_239_26116" x="0.225773" y="328.534" width="139.55" height="115.397" filterUnits="userSpaceOnUse" color-interpolation-filters="sRGB">
<feFlood flood-opacity="0" result="BackgroundImageFix"/>
<feBlend mode="normal" in="SourceGraphic" in2="BackgroundImageFix" result="shape"/>
<feGaussianBlur stdDeviation="20.3871" result="effect1_foregroundBlur_239_26116"/>
</filter>
<filter id="filter6_f_239_26116" x="348.878" y="328.534" width="139.55" height="115.397" filterUnits="userSpaceOnUse" color-interpolation-filters="sRGB">
<feFlood flood-opacity="0" result="BackgroundImageFix"/>
<feBlend mode="normal" in="SourceGraphic" in2="BackgroundImageFix" result="shape"/>
<feGaussianBlur stdDeviation="20.3871" result="effect1_foregroundBlur_239_26116"/>
</filter>
<filter id="filter7_f_239_26116" x="174.552" y="430.077" width="139.55" height="115.397" filterUnits="userSpaceOnUse" color-interpolation-filters="sRGB">
<feFlood flood-opacity="0" result="BackgroundImageFix"/>
<feBlend mode="normal" in="SourceGraphic" in2="BackgroundImageFix" result="shape"/>
<feGaussianBlur stdDeviation="20.3871" result="effect1_foregroundBlur_239_26116"/>
</filter>
<linearGradient id="paint0_linear_239_26116" x1="81.0178" y1="161.509" x2="81.0178" y2="267.733" gradientUnits="userSpaceOnUse">
<stop stop-color="#00BC82"/>
<stop offset="1" stop-color="#00D33C"/>
</linearGradient>
<linearGradient id="paint1_linear_239_26116" x1="72.6647" y1="276.531" x2="72.6647" y2="386.751" gradientUnits="userSpaceOnUse">
<stop stop-color="#00BC82"/>
<stop offset="1" stop-color="#00D33C"/>
</linearGradient>
<linearGradient id="paint2_linear_239_26116" x1="64.826" y1="53.0713" x2="64.826" y2="373.348" gradientUnits="userSpaceOnUse">
<stop stop-color="#00BC82"/>
<stop offset="1" stop-color="#00D33C"/>
</linearGradient>
<linearGradient id="paint3_linear_239_26116" x1="263.61" y1="58.1523" x2="263.61" y2="374.047" gradientUnits="userSpaceOnUse">
<stop stop-color="#00BC82"/>
<stop offset="1" stop-color="#00D33C"/>
</linearGradient>
<linearGradient id="paint4_linear_239_26116" x1="66.6987" y1="163.462" x2="66.6987" y2="487.584" gradientUnits="userSpaceOnUse">
<stop stop-color="#00BC82"/>
<stop offset="1" stop-color="#00D33C"/>
</linearGradient>
<linearGradient id="paint5_linear_239_26116" x1="262.377" y1="157.663" x2="262.377" y2="483.84" gradientUnits="userSpaceOnUse">
<stop stop-color="#00BC82"/>
<stop offset="1" stop-color="#00D33C"/>
</linearGradient>
<linearGradient id="paint6_linear_239_26116" x1="203.897" y1="117.999" x2="188.347" y2="134.376" gradientUnits="userSpaceOnUse">
<stop stop-color="#00BC82"/>
<stop offset="0.513139" stop-color="#00D33C"/>
<stop offset="1" stop-color="#00D33C" stop-opacity="0.102542"/>
<stop offset="1" stop-color="#00D33C" stop-opacity="0.01"/>
</linearGradient>
<linearGradient id="paint7_linear_239_26116" x1="318.503" y1="240.828" x2="318.503" y2="224.754" gradientUnits="userSpaceOnUse">
<stop stop-color="#00D33C" stop-opacity="0.01"/>
<stop offset="0.486861" stop-color="#00D33C"/>
<stop offset="1" stop-color="#00BC82"/>
</linearGradient>
<linearGradient id="paint8_linear_239_26116" x1="365.313" y1="106.782" x2="356.561" y2="88.6802" gradientUnits="userSpaceOnUse">
<stop stop-color="#00BC82"/>
<stop offset="0.513139" stop-color="#00D33C"/>
<stop offset="1" stop-color="#00D33C" stop-opacity="0.01"/>
</linearGradient>
<linearGradient id="paint9_linear_239_26116" x1="118.3" y1="137.864" x2="127.497" y2="120.743" gradientUnits="userSpaceOnUse">
<stop stop-color="#00BC82"/>
<stop offset="0.513139" stop-color="#00D33C"/>
<stop offset="1" stop-color="#00D33C" stop-opacity="0.01"/>
</linearGradient>
<linearGradient id="paint10_linear_239_26116" x1="135.941" y1="292.314" x2="135.941" y2="310.605" gradientUnits="userSpaceOnUse">
<stop stop-color="#00BC82"/>
<stop offset="0.513139" stop-color="#00D33C"/>
<stop offset="1" stop-color="#00D33C" stop-opacity="0.01"/>
</linearGradient>
<linearGradient id="paint11_linear_239_26116" x1="177.37" y1="434.983" x2="163.906" y2="410.193" gradientUnits="userSpaceOnUse">
<stop stop-color="#00D33C" stop-opacity="0.01"/>
<stop offset="0.486861" stop-color="#00D33C"/>
<stop offset="1" stop-color="#00BC82"/>
</linearGradient>
<linearGradient id="paint12_linear_239_26116" x1="369.371" y1="432.161" x2="380.073" y2="415.999" gradientUnits="userSpaceOnUse">
<stop stop-color="#00BC82"/>
<stop offset="0.513139" stop-color="#00D33C"/>
<stop offset="1" stop-color="#00D33C" stop-opacity="0.01"/>
</linearGradient>
<linearGradient id="paint13_linear_239_26116" x1="323.096" y1="418.018" x2="347.799" y2="393.173" gradientUnits="userSpaceOnUse">
<stop stop-color="#00D33C" stop-opacity="0.01"/>
<stop stop-color="#00D33C" stop-opacity="0.0606228"/>
<stop offset="0.662235" stop-color="#00D33C"/>
<stop offset="1" stop-color="#00BC82"/>
</linearGradient>
<linearGradient id="paint14_linear_239_26116" x1="306.893" y1="317.33" x2="306.893" y2="308.781" gradientUnits="userSpaceOnUse">
<stop stop-color="#00D33C" stop-opacity="0.01"/>
<stop offset="0.486861" stop-color="#00D33C"/>
<stop offset="1" stop-color="#00BC82"/>
</linearGradient>
<linearGradient id="paint15_linear_239_26116" x1="186.202" y1="322.72" x2="191.258" y2="308.306" gradientUnits="userSpaceOnUse">
<stop stop-color="#00BC82"/>
<stop offset="0.513139" stop-color="#00D33C"/>
<stop offset="1" stop-color="#00D33C" stop-opacity="0.01"/>
</linearGradient>
<linearGradient id="paint16_linear_239_26116" x1="142.212" y1="188.506" x2="132.621" y2="171.788" gradientUnits="userSpaceOnUse">
<stop stop-color="#00D33C" stop-opacity="0.01"/>
<stop offset="0.486861" stop-color="#00D33C"/>
<stop offset="1" stop-color="#00BC82"/>
</linearGradient>
<linearGradient id="paint17_linear_239_26116" x1="367.933" y1="242.281" x2="352.767" y2="233.437" gradientUnits="userSpaceOnUse">
<stop stop-color="#00D33C" stop-opacity="0.01"/>
<stop offset="0.486861" stop-color="#00D33C"/>
<stop offset="1" stop-color="#00BC82"/>
</linearGradient>
</defs>
</svg>
