<svg width="20" height="20" viewBox="0 0 20 20" fill="none" xmlns="http://www.w3.org/2000/svg">
<path d="M8.57609 15V8.856H10.4181V15H8.57609ZM9.50009 7.578C9.30009 7.578 9.11609 7.53 8.94809 7.434C8.78409 7.334 8.65209 7.2 8.55209 7.032C8.45209 6.864 8.40209 6.68 8.40209 6.48C8.40209 6.28 8.45209 6.098 8.55209 5.934C8.65209 5.77 8.78409 5.64 8.94809 5.544C9.11609 5.444 9.30009 5.394 9.50009 5.394C9.70009 5.394 9.88209 5.444 10.0461 5.544C10.2101 5.64 10.3401 5.77 10.4361 5.934C10.5361 6.098 10.5861 6.28 10.5861 6.48C10.5861 6.68 10.5361 6.864 10.4361 7.032C10.3401 7.2 10.2101 7.334 10.0461 7.434C9.88209 7.53 9.70009 7.578 9.50009 7.578Z" fill="#777E90"/>
<circle cx="10" cy="10" r="9" stroke="#777E90" stroke-width="2"/>
</svg>
