<svg width="93" height="24" viewBox="0 0 93 24" fill="none" xmlns="http://www.w3.org/2000/svg">
<path d="M5.908 7.396C6.44 7.396 6.93 7.52667 7.378 7.788C7.83533 8.04933 8.19467 8.40867 8.456 8.866C8.71733 9.314 8.848 9.804 8.848 10.336V10.644C8.848 11.176 8.71733 11.6707 8.456 12.128C8.19467 12.576 7.83533 12.9307 7.378 13.192C6.93 13.4533 6.44 13.584 5.908 13.584H3.738V17H0.798V7.396H5.908ZM3.738 11.442H5.026C5.28733 11.442 5.49267 11.358 5.642 11.19C5.79133 11.0127 5.866 10.8167 5.866 10.602V10.434C5.866 10.2193 5.79133 10.028 5.642 9.86C5.502 9.68267 5.29667 9.594 5.026 9.594H3.738V11.442ZM12.4954 6.92V17H9.72344V6.92H12.4954ZM17.5614 9.706C18.644 9.706 19.47 9.916 20.0394 10.336C20.618 10.756 20.9074 11.302 20.9074 11.974V14.928C20.9074 15.1053 20.9494 15.236 21.0334 15.32C21.1174 15.404 21.22 15.446 21.3414 15.446C21.5187 15.446 21.682 15.404 21.8314 15.32V16.818C21.5327 17.0327 21.0614 17.14 20.4174 17.14C19.82 17.14 19.3487 17.042 19.0034 16.846C18.658 16.6407 18.4434 16.3607 18.3594 16.006C18.0607 16.3513 17.7294 16.6267 17.3654 16.832C17.0107 17.0373 16.572 17.14 16.0494 17.14C15.3027 17.14 14.696 16.9953 14.2294 16.706C13.7627 16.4167 13.5294 15.8473 13.5294 14.998C13.5294 14.354 13.7114 13.8593 14.0754 13.514C14.4394 13.1593 14.9574 12.9167 15.6294 12.786C16.3107 12.646 17.174 12.576 18.2194 12.576V12.17C18.2194 11.9087 18.1307 11.7033 17.9534 11.554C17.7854 11.4047 17.5707 11.33 17.3094 11.33C17.0947 11.33 16.8894 11.3953 16.6934 11.526C16.5067 11.6473 16.4134 11.8013 16.4134 11.988V12.044H13.7534C13.744 12.016 13.7394 11.9507 13.7394 11.848C13.7394 11.4467 13.8747 11.0873 14.1454 10.77C14.4254 10.4433 14.8174 10.1867 15.3214 10C15.8347 9.804 16.4274 9.706 17.0994 9.706H17.5614ZM18.2194 13.85C17.6034 13.85 17.1507 13.934 16.8614 14.102C16.572 14.2607 16.4274 14.4847 16.4274 14.774C16.4274 15.222 16.7074 15.446 17.2674 15.446C17.5287 15.446 17.7527 15.3573 17.9394 15.18C18.126 14.9933 18.2194 14.7553 18.2194 14.466V13.85ZM27.3057 16.496C26.9604 17.448 26.489 18.204 25.8917 18.764C25.2944 19.3333 24.5804 19.618 23.7497 19.618C23.115 19.618 22.653 19.548 22.3637 19.408V17.602C22.4757 17.658 22.6297 17.7047 22.8257 17.742C23.031 17.7793 23.227 17.798 23.4137 17.798C23.787 17.798 24.0437 17.7 24.1837 17.504C24.333 17.3173 24.4404 17.0793 24.5057 16.79L21.8737 9.846H24.8277L25.9337 13.556H26.0457L26.9837 9.846H29.7137L27.3057 16.496ZM34.218 9.706C34.9366 9.706 35.5526 9.846 36.066 10.126C36.5886 10.3967 36.9853 10.7747 37.256 11.26C37.536 11.7453 37.676 12.3007 37.676 12.926V13.794H33.014V14.466C33.014 14.7833 33.112 15.026 33.308 15.194C33.5133 15.362 33.7746 15.446 34.092 15.446C34.4186 15.446 34.666 15.348 34.834 15.152C35.0113 14.9467 35.1 14.6667 35.1 14.312H37.662C37.662 14.844 37.522 15.3247 37.242 15.754C36.9713 16.1833 36.57 16.524 36.038 16.776C35.5153 17.0187 34.8946 17.14 34.176 17.14H33.966C33.2193 17.14 32.5473 17.0047 31.95 16.734C31.362 16.454 30.8953 16.0527 30.55 15.53C30.214 14.998 30.046 14.368 30.046 13.64V13.206C30.046 12.478 30.2046 11.8527 30.522 11.33C30.8486 10.798 31.3013 10.3967 31.88 10.126C32.4586 9.846 33.1213 9.706 33.868 9.706H34.218ZM33.98 11.4C33.7093 11.4 33.4806 11.498 33.294 11.694C33.1073 11.8807 33.014 12.1093 33.014 12.38V12.576H34.946V12.38C34.946 12.1093 34.8526 11.8807 34.666 11.694C34.4793 11.498 34.2506 11.4 33.98 11.4ZM43.0462 9.706C43.6622 9.706 44.1382 9.87867 44.4742 10.224C44.8195 10.56 44.9922 11.0267 44.9922 11.624V11.862L44.9642 12.394L44.9362 12.744H42.6682V12.408C42.6682 12.212 42.6075 12.0487 42.4862 11.918C42.3742 11.778 42.2388 11.708 42.0802 11.708C41.9122 11.708 41.7675 11.778 41.6462 11.918C41.5342 12.0487 41.4782 12.212 41.4782 12.408V17H38.7762V9.846H40.8482L41.1562 10.882C41.2122 10.77 41.3195 10.6207 41.4782 10.434C41.6368 10.2473 41.8515 10.0793 42.1222 9.93C42.3928 9.78067 42.7008 9.706 43.0462 9.706Z" fill="#E6E8EC"/>
<path d="M58.4162 17H55.4762V10.84H55.4202L53.7402 17H50.3662L48.7002 10.84H48.6302V17H45.9562V7.396H50.7722L52.1582 12.52H52.2142L53.5722 7.396H58.4162V17ZM62.6709 8.922H59.9129V6.92H62.6709V8.922ZM62.6709 17H59.9129V9.86H62.6709V17ZM68.9971 9.706C69.3798 9.706 69.7298 9.79933 70.0471 9.986C70.3738 10.1727 70.6305 10.4293 70.8171 10.756C71.0038 11.0733 71.0971 11.4233 71.0971 11.806V17H68.3251V12.52C68.3251 12.2867 68.2505 12.0907 68.1011 11.932C67.9611 11.764 67.7885 11.68 67.5831 11.68C67.3778 11.68 67.2005 11.764 67.0511 11.932C66.9111 12.0907 66.8411 12.2867 66.8411 12.52V17H64.0691V9.846H66.1551L66.4351 10.882C66.9485 10.098 67.6718 9.706 68.6051 9.706H68.9971ZM75.628 9.846H77.308V11.834H75.628V14.48C75.628 14.8533 75.698 15.11 75.838 15.25C75.9873 15.3807 76.1833 15.446 76.426 15.446C76.538 15.446 76.6827 15.432 76.86 15.404C77.0467 15.3667 77.1913 15.3247 77.294 15.278V16.846C77.0793 16.9393 76.7807 17.014 76.398 17.07C76.0153 17.126 75.6887 17.154 75.418 17.154C74.5967 17.154 73.962 17.0047 73.514 16.706C73.0753 16.4073 72.856 15.8987 72.856 15.18V11.834H72.072V9.846H72.968L73.934 7.564H75.628V9.846Z" fill="#2CD138"/>
</svg>
