<svg width="24" height="24" viewBox="0 0 24 24" fill="none" xmlns="http://www.w3.org/2000/svg">
<path d="M8 4.81879V21H15V4.81879C15 4.01874 14.5232 3.29566 13.7878 2.9805L12.2878 2.33765C11.7847 2.12203 11.2153 2.12203 10.7122 2.33765L9.21216 2.9805C8.47679 3.29566 8 4.01874 8 4.81879Z" stroke="#2CD138" stroke-width="2" stroke-linecap="round" stroke-linejoin="round"/>
<path d="M1 14.8188V21H8V14.8188C8 14.0187 7.52321 13.2957 6.78784 12.9805L5.28784 12.3376C4.78474 12.122 4.21526 12.122 3.71216 12.3376L2.21216 12.9805C1.47679 13.2957 1 14.0187 1 14.8188Z" stroke="#2CD138" stroke-width="2" stroke-linecap="round" stroke-linejoin="round"/>
<path d="M15 11.8188V21H22V11.8188C22 11.0187 21.5232 10.2957 20.7878 9.9805L19.2878 9.33765C18.7847 9.12203 18.2153 9.12203 17.7122 9.33765L16.2122 9.9805C15.4768 10.2957 15 11.0187 15 11.8188Z" stroke="#2CD138" stroke-width="2" stroke-linecap="round" stroke-linejoin="round"/>
</svg>
