<svg width="24" height="20" viewBox="0 0 24 20" fill="none" xmlns="http://www.w3.org/2000/svg">
<path fill-rule="evenodd" clip-rule="evenodd" d="M12.0662 13.9623C12.1132 15.2065 12.1791 16.1145 12.244 16.7656C12.3079 17.4068 12.695 17.7926 13.2345 17.8586C13.8708 17.9363 14.7683 18 16 18C17.2317 18 18.1292 17.9363 18.7655 17.8586C19.3048 17.7926 19.6921 17.4067 19.7559 16.7653C19.8763 15.5568 20 13.4688 20 10C20 6.53118 19.8763 4.44321 19.7559 3.23468C19.6921 2.59333 19.3048 2.20737 18.7655 2.14144C18.1292 2.06366 17.2317 2 16 2C14.7683 2 13.8708 2.06365 13.2345 2.14143C12.695 2.20739 12.3079 2.59318 12.244 3.23437C12.1791 3.88545 12.1132 4.79354 12.0662 6.03772C12.0454 6.58961 11.5811 7.02012 11.0292 6.99929C10.4773 6.97845 10.0468 6.51417 10.0676 5.96228C10.1158 4.68524 10.1842 3.73543 10.2538 3.03611C10.4003 1.56595 11.4253 0.347702 12.9919 0.156206C13.7211 0.0670664 14.7008 2.02554e-07 16 2.59343e-07C17.2992 3.16134e-07 18.2789 0.0670704 19.0082 0.156216C20.5748 0.347739 21.5997 1.56655 21.7461 3.03643C21.875 4.33068 22 6.48847 22 10C22 13.5115 21.875 15.6693 21.7461 16.9636C21.5997 18.4334 20.5748 19.6523 19.0082 19.8438C18.2789 19.9329 17.2992 20 16 20C14.7008 20 13.7211 19.9329 12.9919 19.8438C11.4253 19.6523 10.4003 18.4341 10.2538 16.9639C10.1842 16.2646 10.1158 15.3148 10.0676 14.0377C10.0468 13.4858 10.4773 13.0215 11.0292 13.0007C11.5811 12.9799 12.0454 13.4104 12.0662 13.9623Z" fill="#EF466F"/>
<path fill-rule="evenodd" clip-rule="evenodd" d="M7.20711 14.2071C6.81658 14.5976 6.18342 14.5976 5.79289 14.2071L2.29289 10.7071C1.90237 10.3166 1.90237 9.68342 2.29289 9.29289L5.79289 5.79289C6.18342 5.40237 6.81658 5.40237 7.20711 5.79289C7.59763 6.18342 7.59763 6.81658 7.20711 7.20711L5.41421 9H15C15.5523 9 16 9.44772 16 10C16 10.5523 15.5523 11 15 11L5.41421 11L7.20711 12.7929C7.59763 13.1834 7.59763 13.8166 7.20711 14.2071Z" fill="#EF466F"/>
</svg>
