<svg width="24" height="24" viewBox="0 0 24 24" fill="none" xmlns="http://www.w3.org/2000/svg">
<path fill-rule="evenodd" clip-rule="evenodd" d="M9.16887 2.67376L10.9871 5.09812C11.8829 6.29249 11.7641 7.96377 10.7085 9.01945L9.3679 10.36C9.49781 10.6982 9.9255 11.4403 11.2279 12.7427C12.5303 14.0451 13.2724 14.4727 13.6105 14.6026L14.9511 13.2621C16.0068 12.2064 17.6781 12.0876 18.8724 12.9834L21.2968 14.8017C22.7573 15.8971 22.909 18.0321 21.6181 19.323C21.1984 19.7427 21.1274 19.8137 20.427 20.5141C19.7132 21.2279 18.1975 21.8951 16.663 21.9618C14.2617 22.0662 10.9999 21 6.98526 16.9853C2.97058 12.9706 1.90432 9.70885 2.00873 7.30753C2.0668 5.97172 2.4915 4.50459 3.46203 3.54913C4.15683 2.84316 4.24719 2.7528 4.64755 2.35244C5.93848 1.06151 8.07348 1.21324 9.16887 2.67376ZM8.39947 15.5711C12.163 19.3346 14.9116 20.0361 16.5762 19.9637C18.13 19.8962 18.9636 19.1453 19.0128 19.0999L20.2039 17.9088C20.6342 17.4785 20.5836 16.7668 20.0968 16.4017L17.6724 14.5834C17.2743 14.2848 16.7172 14.3244 16.3653 14.6763C15.8351 15.2065 15.4732 15.5738 14.7648 16.2795C13.2931 17.7456 10.7741 15.1173 9.81368 14.1569C8.9311 13.2743 6.24144 10.6752 7.68959 9.2099C7.69246 9.20703 8.08251 8.81697 9.29425 7.60523C9.64614 7.25334 9.68573 6.69624 9.38714 6.29812L7.56887 3.87376C7.20374 3.38692 6.49207 3.33634 6.06176 3.76665C5.66571 4.16271 5.21749 4.61092 4.87185 4.95895C4.16048 5.67524 4.04491 6.5188 4.00684 7.3944C3.93447 9.05894 4.63597 11.8076 8.39947 15.5711Z" fill="#2CD138"/>
</svg>
