<svg width="22" height="18" viewBox="0 0 22 18" fill="none" xmlns="http://www.w3.org/2000/svg">
<path fill-rule="evenodd" clip-rule="evenodd" d="M4 2C2.89543 2 2 2.89543 2 4V14C2 15.1046 2.89543 16 4 16H18C19.1046 16 20 15.1046 20 14V4C20 2.89543 19.1046 2 18 2H4ZM0 4V14C0 16.2091 1.79086 18 4 18H18C20.2091 18 22 16.2091 22 14V4C22 1.79086 20.2091 0 18 0H4C1.79086 0 0 1.79086 0 4Z" fill="#2CD138"/>
<path fill-rule="evenodd" clip-rule="evenodd" d="M17 4H21C21.5523 4 22 4.44772 22 5C22 5.55228 21.5523 6 21 6H17C15.3431 6 14 7.34315 14 9C14 10.6569 15.3431 12 17 12H21C21.5523 12 22 12.4477 22 13C22 13.5523 21.5523 14 21 14H17C14.2386 14 12 11.7614 12 9C12 6.23858 14.2386 4 17 4Z" fill="#2CD138"/>
<path fill-rule="evenodd" clip-rule="evenodd" d="M17 10C16.4477 10 16 9.55228 16 9C16 8.44772 16.4477 8 17 8C17.5523 8 18 8.44772 18 9C18 9.55228 17.5523 10 17 10Z" fill="#2CD138"/>
</svg>
