<svg width="22" height="18" viewBox="0 0 22 18" fill="none" xmlns="http://www.w3.org/2000/svg">
<path fill-rule="evenodd" clip-rule="evenodd" d="M2.7733 10.876L2.2733 14.876C2.19869 15.4728 2.66408 16 3.26558 16H8.73445C9.33595 16 9.80133 15.4728 9.72673 14.876L9.22673 10.876C9.16417 10.3755 8.73877 10 8.23445 10H3.76558C3.26126 10 2.83585 10.3755 2.7733 10.876ZM3.76558 8H8.23445C9.74742 8 11.0236 9.12661 11.2113 10.6279L11.7113 14.6279C11.9351 16.4185 10.5389 18 8.73445 18H3.26558C1.46108 18 0.0649252 16.4185 0.288745 14.6279L0.788745 10.6279C0.976406 9.12661 2.25261 8 3.76558 8Z" fill="#2CD138"/>
<path fill-rule="evenodd" clip-rule="evenodd" d="M12.7733 10.876L12.2733 14.876C12.1987 15.4728 12.6641 16 13.2656 16H18.7344C19.3359 16 19.8013 15.4728 19.7267 14.876L19.2267 10.876C19.1642 10.3755 18.7388 10 18.2344 10H13.7656C13.2613 10 12.8359 10.3755 12.7733 10.876ZM13.7656 8H18.2344C19.7474 8 21.0236 9.12661 21.2113 10.6279L21.7113 14.6279C21.9351 16.4185 20.5389 18 18.7344 18H13.2656C11.4611 18 10.0649 16.4185 10.2887 14.6279L10.7887 10.6279C10.9764 9.12661 12.2526 8 13.7656 8Z" fill="#2CD138"/>
<path fill-rule="evenodd" clip-rule="evenodd" d="M7.7733 2.87597L7.2733 6.87597C7.19869 7.47282 7.66408 8 8.26558 8H13.7344C14.3359 8 14.8013 7.47282 14.7267 6.87597L14.2267 2.87597C14.1642 2.37554 13.7388 2 13.2344 2H8.76558C8.26126 2 7.83586 2.37554 7.7733 2.87597ZM8.76558 0H13.2344C14.7474 0 16.0236 1.12661 16.2113 2.6279L16.7113 6.6279C16.9351 8.41846 15.5389 10 13.7344 10H8.26558C6.46108 10 5.06493 8.41846 5.28875 6.6279L5.78875 2.6279C5.97641 1.12661 7.25261 0 8.76558 0Z" fill="#2CD138"/>
</svg>
