<svg width="216" height="39" viewBox="0 0 216 39" fill="none" xmlns="http://www.w3.org/2000/svg">
<path d="M38.1172 35.8438C38.2266 36.5469 38.1016 37.0859 37.7422 37.4609C37.3984 37.8203 36.8516 38 36.1016 38H32.6562C31.9531 38 31.4219 37.8281 31.0625 37.4844C30.7031 37.125 30.4766 36.5781 30.3828 35.8438L28.7656 22.1562L23.0469 36.0312C22.3906 37.5 21.3672 38.2344 19.9766 38.2344H19.4844C18.0938 38.2344 17.0703 37.5 16.4141 36.0312L10.7188 22.1094L9.07812 35.8438C9 36.5781 8.78906 37.125 8.44531 37.4844C8.10156 37.8281 7.57812 38 6.875 38H2.84375C2.09375 38 1.53906 37.8203 1.17969 37.4609C0.820312 37.0859 0.6875 36.5469 0.78125 35.8438L5.04688 8.72656C5.14062 8.03906 5.40625 7.50781 5.84375 7.13281C6.29688 6.75781 6.88281 6.57031 7.60156 6.57031H8.07031C9.33594 6.57031 10.2969 7.28906 10.9531 8.72656L19.7422 27.5938L28.0391 8.72656C28.6953 7.28906 29.6562 6.57031 30.9219 6.57031H31.4375C32.125 6.57031 32.6953 6.75781 33.1484 7.13281C33.6016 7.50781 33.8828 8.03906 33.9922 8.72656L38.1172 35.8438ZM45.5947 10.0625C44.2197 10.0625 43.04 9.57812 42.0556 8.60938C41.0869 7.625 40.6025 6.44531 40.6025 5.07031C40.6025 3.67969 41.0869 2.5 42.0556 1.53125C43.04 0.5625 44.2197 0.078125 45.5947 0.078125C46.9853 0.078125 48.165 0.5625 49.1338 1.53125C50.1025 2.5 50.5869 3.67969 50.5869 5.07031C50.5869 6.44531 50.1025 7.625 49.1338 8.60938C48.165 9.57812 46.9853 10.0625 45.5947 10.0625ZM43.6259 38C42.9228 38 42.3759 37.8125 41.9853 37.4375C41.6103 37.0469 41.4228 36.5 41.4228 35.7969V15.9688C41.4228 15.2656 41.6103 14.7266 41.9853 14.3516C42.3759 13.9609 42.9228 13.7656 43.6259 13.7656H47.5634C48.2509 13.7656 48.79 13.9609 49.1806 14.3516C49.5713 14.7422 49.7666 15.2812 49.7666 15.9688V35.7969C49.7666 36.4844 49.5713 37.0234 49.1806 37.4141C48.79 37.8047 48.2509 38 47.5634 38H43.6259ZM68.7284 13.3672C71.6816 13.3672 74.08 14.3281 75.9238 16.25C77.7831 18.1562 78.7128 20.6875 78.7128 23.8438V35.7969C78.7128 36.4844 78.5175 37.0234 78.1269 37.4141C77.7363 37.8047 77.1972 38 76.5097 38H72.5722C71.8847 38 71.3456 37.8047 70.955 37.4141C70.5644 37.0234 70.3691 36.4844 70.3691 35.7969V24.4531C70.3691 23.25 70.0253 22.2812 69.3378 21.5469C68.6503 20.7969 67.7284 20.4219 66.5722 20.4219C65.3847 20.4219 64.4394 20.7969 63.7363 21.5469C63.0331 22.2812 62.6816 23.25 62.6816 24.4531V35.7969C62.6816 36.4844 62.4941 37.0234 62.1191 37.4141C61.7441 37.8047 61.2128 38 60.5253 38H56.5409C55.8534 38 55.3222 37.8047 54.9472 37.4141C54.5722 37.0234 54.3847 36.4844 54.3847 35.7969V15.9688C54.3847 15.2812 54.5722 14.7422 54.9472 14.3516C55.3222 13.9609 55.8534 13.7656 56.5409 13.7656H59.0722C59.7597 13.7656 60.2909 13.9609 60.6659 14.3516C61.0566 14.7422 61.2519 15.2812 61.2519 15.9688V17.2109C63.0644 14.6484 65.5566 13.3672 68.7284 13.3672ZM101.143 34.7422C101.253 34.9609 101.308 35.1719 101.308 35.375C101.308 35.5781 101.284 35.7422 101.237 35.8672C101.19 35.9922 101.089 36.1406 100.933 36.3125C100.776 36.4688 100.659 36.5781 100.581 36.6406C100.518 36.7031 100.386 36.8047 100.183 36.9453C98.6044 38.0703 96.5731 38.6328 94.0888 38.6328C92.8544 38.6328 91.6825 38.4453 90.5731 38.0703C89.4794 37.7109 88.4872 37.1719 87.5966 36.4531C86.7059 35.7344 85.995 34.7656 85.4638 33.5469C84.9481 32.3125 84.6903 30.8984 84.6903 29.3047V19.8125H82.5809C81.8778 19.8125 81.3309 19.6172 80.9403 19.2266C80.5497 18.8359 80.3544 18.2969 80.3544 17.6094V15.9688C80.3544 15.25 80.5419 14.7031 80.9169 14.3281C81.3075 13.9531 81.8622 13.7656 82.5809 13.7656H84.6903V8.1875C84.6903 7.53125 84.87 7.03906 85.2294 6.71094C85.6044 6.38281 86.1591 6.14063 86.8934 5.98438L90.7372 5.30469C91.4247 5.16406 91.9638 5.30469 92.3544 5.72656C92.745 6.13281 92.9403 6.71094 92.9403 7.46094V13.7656H97.6981C98.4013 13.7656 98.9403 13.9609 99.3153 14.3516C99.7059 14.7266 99.9013 15.2656 99.9013 15.9688V17.6094C99.9013 18.2969 99.7059 18.8359 99.3153 19.2266C98.9247 19.6172 98.3856 19.8125 97.6981 19.8125H92.9403V28.4375C92.9403 29.5312 93.1825 30.3281 93.6669 30.8281C94.1669 31.3281 94.8231 31.5781 95.6356 31.5781C96.1981 31.5781 96.8544 31.3516 97.6044 30.8984C98.5575 30.2734 99.2919 30.5156 99.8075 31.625L101.143 34.7422Z" fill="#FCFCFD"/>
<path d="M139.231 6.80469C139.95 6.80469 140.497 7 140.872 7.39062C141.247 7.78125 141.434 8.33594 141.434 9.05469V35.5156C141.434 36.4531 141.161 37.1406 140.614 37.5781C140.067 38.0156 139.348 38.2344 138.458 38.2344H137.966C137.231 38.2344 136.575 38.0625 135.997 37.7188C135.434 37.3594 134.833 36.7969 134.192 36.0312L121.278 20.8672V35.75C121.278 36.4688 121.075 37.0234 120.669 37.4141C120.278 37.8047 119.723 38 119.005 38H115.091C114.372 38 113.809 37.8047 113.403 37.4141C113.012 37.0234 112.817 36.4688 112.817 35.75V9.28906C112.817 8.36719 113.098 7.6875 113.661 7.25C114.223 6.79688 114.95 6.57031 115.841 6.57031H116.333C117.067 6.57031 117.723 6.75 118.302 7.10938C118.88 7.45313 119.489 8.00781 120.13 8.77344L133.02 23.9375V9.05469C133.02 8.33594 133.216 7.78125 133.606 7.39062C134.012 7 134.575 6.80469 135.294 6.80469H139.231ZM149.334 38C148.615 38 148.053 37.8047 147.646 37.4141C147.256 37.0234 147.06 36.4688 147.06 35.75V9.05469C147.06 8.33594 147.256 7.78125 147.646 7.39062C148.053 7 148.615 6.80469 149.334 6.80469H167.615C169.115 6.80469 169.865 7.55469 169.865 9.05469V11.3984C169.865 12.1172 169.67 12.6797 169.279 13.0859C168.904 13.4766 168.349 13.6719 167.615 13.6719H155.521V19.7188H164.053C164.771 19.7188 165.326 19.9141 165.717 20.3047C166.123 20.6953 166.326 21.25 166.326 21.9688V23.9844C166.326 24.6875 166.123 25.2344 165.717 25.625C165.326 26 164.771 26.1875 164.053 26.1875H155.521V35.75C155.521 36.4688 155.318 37.0234 154.912 37.4141C154.521 37.8047 153.967 38 153.248 38H149.334ZM182.124 38C181.405 38 180.85 37.8047 180.46 37.4141C180.069 37.0234 179.874 36.4688 179.874 35.75V13.6719H172.491C171.772 13.6719 171.217 13.4766 170.827 13.0859C170.436 12.6797 170.241 12.1172 170.241 11.3984V9.05469C170.241 8.32031 170.436 7.76562 170.827 7.39062C171.217 7 171.772 6.80469 172.491 6.80469H195.717C196.436 6.80469 196.991 7 197.382 7.39062C197.772 7.76562 197.967 8.32031 197.967 9.05469V11.3984C197.967 12.1172 197.772 12.6797 197.382 13.0859C196.991 13.4766 196.436 13.6719 195.717 13.6719H188.335V35.75C188.335 36.4688 188.132 37.0234 187.725 37.4141C187.335 37.8047 186.78 38 186.061 38H182.124ZM205.539 38.6797C203.539 38.6797 201.617 38.3438 199.773 37.6719C197.929 36.9844 196.492 36.1641 195.461 35.2109C194.883 34.6797 194.57 34.1797 194.523 33.7109C194.476 33.2422 194.726 32.6719 195.273 32L196.422 30.6172C196.765 30.1953 197.125 29.9297 197.5 29.8203C197.89 29.6953 198.242 29.6875 198.554 29.7969C198.883 29.9062 199.242 30.0938 199.633 30.3594C201.57 31.7656 203.554 32.4688 205.586 32.4688C206.304 32.4688 206.859 32.3438 207.25 32.0938C207.64 31.8438 207.836 31.4922 207.836 31.0391C207.836 30.8203 207.773 30.6172 207.648 30.4297C207.523 30.2266 207.383 30.0625 207.226 29.9375C207.07 29.7969 206.836 29.6562 206.523 29.5156C206.211 29.3594 205.945 29.2422 205.726 29.1641C205.523 29.0859 205.218 28.9766 204.812 28.8359C204.031 28.6016 203.406 28.4062 202.937 28.25C202.468 28.0938 201.875 27.875 201.156 27.5938C200.453 27.3125 199.875 27.0391 199.422 26.7734C198.984 26.5078 198.508 26.1719 197.992 25.7656C197.476 25.3594 197.07 24.9297 196.773 24.4766C196.476 24.0234 196.226 23.4922 196.023 22.8828C195.836 22.2734 195.742 21.6172 195.742 20.9141C195.742 18.5859 196.633 16.7422 198.414 15.3828C200.195 14.0078 202.586 13.3203 205.586 13.3203C207.273 13.3203 208.945 13.5781 210.601 14.0938C212.273 14.6094 213.547 15.2344 214.422 15.9688C215 16.4688 215.304 16.9531 215.336 17.4219C215.367 17.8906 215.109 18.4922 214.562 19.2266L213.554 20.4688C212.758 21.5 211.734 21.6328 210.484 20.8672C209 19.8047 207.398 19.2734 205.679 19.2734C205.023 19.2734 204.508 19.3984 204.133 19.6484C203.758 19.8828 203.57 20.1953 203.57 20.5859C203.57 20.8203 203.64 21.0312 203.781 21.2188C203.937 21.3906 204.195 21.5625 204.554 21.7344C204.929 21.9062 205.281 22.0547 205.609 22.1797C205.953 22.2891 206.453 22.4609 207.109 22.6953C207.781 22.9141 208.343 23.1016 208.797 23.2578C209.875 23.6797 210.797 24.1094 211.562 24.5469C212.328 24.9844 213.039 25.5078 213.695 26.1172C214.351 26.7109 214.843 27.4141 215.172 28.2266C215.5 29.0234 215.664 29.9297 215.664 30.9453C215.664 33.3359 214.734 35.2266 212.875 36.6172C211.031 37.9922 208.586 38.6797 205.539 38.6797Z" fill="#2CD138"/>
</svg>
