<svg width="18" height="18" viewBox="0 0 18 18" fill="none" xmlns="http://www.w3.org/2000/svg">
<path d="M2.66055 1.87829L2.23687 1.44349C2.22179 1.63716 2.14173 1.82006 2.00968 1.96252C1.87762 2.10499 1.70131 2.19867 1.50934 2.22837L1.94329 2.63236L17.5073 17.1419L2.66055 1.87829ZM3.68765 6.08342V14.7453C3.83567 14.5896 4.03684 14.4952 4.25122 14.4809C4.4656 14.4667 4.6775 14.5335 4.84485 14.6683V8.8566L14.2232 18.0004H15.8391L3.68765 6.08342ZM14.6117 4.08229C14.3884 4.08295 14.1735 3.99669 14.0126 3.84177V9.70396L4.80634 0.561035H3.02346L15.1707 12.4523V3.87515C15.0152 4.00893 14.8169 4.08244 14.6117 4.08229Z" fill="#777E90"/>
<path d="M1.37803 2.66101e-07C1.10561 -0.000169041 0.839268 0.0804569 0.61268 0.23168C0.386093 0.382903 0.209444 0.597928 0.105078 0.849559C0.000711551 1.10119 -0.0266836 1.37812 0.0263583 1.64532C0.0794001 1.91252 0.210496 2.15799 0.403063 2.35068C0.59563 2.54337 0.841017 2.67461 1.10819 2.72782C1.37536 2.78103 1.6523 2.75381 1.904 2.6496C2.15569 2.54539 2.37083 2.36887 2.52219 2.14238C2.67356 1.91589 2.75435 1.64959 2.75435 1.37717C2.75412 1.01214 2.60907 0.662114 2.35104 0.403918C2.093 0.145721 1.74306 0.000453651 1.37803 2.66101e-07ZM1.50899 2.22539C1.46567 2.23228 1.42189 2.23571 1.37803 2.23566C1.20749 2.23583 1.04073 2.1854 0.898857 2.09076C0.756985 1.99612 0.646379 1.86151 0.581037 1.70398C0.515695 1.54646 0.498554 1.37308 0.531784 1.20581C0.565014 1.03854 0.64712 0.88488 0.767712 0.764288C0.888304 0.643696 1.04196 0.56159 1.20923 0.52836C1.37651 0.49513 1.54988 0.512271 1.70741 0.577613C1.86494 0.642955 1.99954 0.753561 2.09418 0.895432C2.18883 1.0373 2.23925 1.20406 2.23908 1.37461C2.23908 1.39686 2.23908 1.41911 2.23908 1.44051C2.22389 1.63456 2.14346 1.81774 2.01089 1.96026C1.87833 2.10277 1.70143 2.19622 1.50899 2.22539Z" fill="#777E90"/>
<path d="M14.6117 1.84326C14.2525 1.85222 13.911 2.0012 13.6601 2.25841C13.4093 2.51563 13.2688 2.8607 13.2688 3.22001C13.2688 3.57931 13.4093 3.92439 13.6601 4.1816C13.911 4.43882 14.2525 4.5878 14.6117 4.59675C14.8043 4.59728 14.9949 4.55672 15.1706 4.47778C15.4591 4.34986 15.6949 4.12667 15.8385 3.84561C15.982 3.56455 16.0246 3.24268 15.9591 2.93395C15.8936 2.62522 15.724 2.34837 15.4787 2.14981C15.2334 1.95124 14.9273 1.84301 14.6117 1.84326ZM15.1706 3.87436C15.0213 4.00178 14.8329 4.07435 14.6367 4.08005C14.4404 4.08574 14.2482 4.02422 14.0917 3.90568C13.9352 3.78714 13.824 3.61869 13.7763 3.42826C13.7287 3.23782 13.7476 3.03683 13.8298 2.85859C13.9121 2.68035 14.0528 2.53556 14.2286 2.44822C14.4044 2.36088 14.6047 2.33623 14.7965 2.37836C14.9882 2.42049 15.1598 2.52687 15.2828 2.67986C15.4058 2.83285 15.4728 3.02328 15.4727 3.21958C15.473 3.34413 15.4462 3.46725 15.394 3.58034C15.3418 3.69343 15.2656 3.79377 15.1706 3.87436Z" fill="#777E90"/>
<path d="M4.84627 14.0727C4.57377 13.9574 4.27138 13.933 3.98388 14.0029C3.69638 14.0729 3.43907 14.2336 3.25005 14.4613C3.06104 14.6889 2.95037 14.9714 2.93443 15.2669C2.9185 15.5623 2.99815 15.8551 3.16159 16.1017C3.32503 16.3484 3.56356 16.5359 3.84187 16.6363C4.12017 16.7368 4.42344 16.745 4.70676 16.6597C4.99008 16.5744 5.23839 16.4001 5.4149 16.1626C5.59141 15.9251 5.68675 15.6371 5.68678 15.3412C5.68783 15.0704 5.60853 14.8053 5.45892 14.5795C5.30931 14.3537 5.09611 14.1774 4.84627 14.0727ZM4.30704 16.2023C4.13678 16.2021 3.97039 16.1514 3.8289 16.0567C3.68741 15.962 3.57718 15.8275 3.51214 15.6701C3.4471 15.5128 3.43017 15.3397 3.46349 15.1727C3.49681 15.0057 3.57889 14.8524 3.69934 14.732C3.8198 14.6117 3.97322 14.5298 4.14023 14.4966C4.30723 14.4635 4.48032 14.4806 4.63761 14.5458C4.79489 14.611 4.92932 14.7213 5.0239 14.8629C5.11847 15.0045 5.16895 15.1709 5.16895 15.3412C5.16873 15.5697 5.07782 15.7887 4.9162 15.9501C4.75459 16.1116 4.53549 16.2023 4.30704 16.2023Z" fill="#777E90"/>
</svg>
