<svg width="51" height="50" viewBox="0 0 51 50" fill="none" xmlns="http://www.w3.org/2000/svg">
    <path fill-rule="evenodd" clip-rule="evenodd"
          d="M23.7439 33.3333V39.5833H19.5772C18.4266 39.5833 17.4939 40.5161 17.4939 41.6667C17.4939 42.8173 18.4266 43.75 19.5772 43.75H32.0772C33.2278 43.75 34.1606 42.8173 34.1606 41.6667C34.1606 40.5161 33.2278 39.5833 32.0772 39.5833H27.9106V33.3333C27.9106 32.1827 26.9778 31.25 25.8272 31.25C24.6766 31.25 23.7439 32.1827 23.7439 33.3333Z"
          fill="url(#paint0_linear_255_31631)"/>
    <path fill-rule="evenodd" clip-rule="evenodd"
          d="M17.4939 10.4167C16.3433 10.4167 15.4106 11.3494 15.4106 12.5V20.8333C15.4106 26.5863 20.0743 31.25 25.8272 31.25C31.5802 31.25 36.2439 26.5863 36.2439 20.8333V12.5C36.2439 11.3494 35.3112 10.4167 34.1606 10.4167H17.4939ZM11.2439 12.5V20.8333C11.2439 28.8875 17.7731 35.4167 25.8272 35.4167C33.8814 35.4167 40.4106 28.8875 40.4106 20.8333V12.5C40.4106 9.04822 37.6123 6.25 34.1606 6.25H17.4939C14.0421 6.25 11.2439 9.04822 11.2439 12.5Z"
          fill="url(#paint1_linear_255_31631)"/>
    <path fill-rule="evenodd" clip-rule="evenodd"
          d="M9.1604 10.4165H15.4104V27.0832H11.2437C6.64136 27.0832 2.9104 23.3522 2.9104 18.7498V16.6665C2.9104 13.2147 5.70862 10.4165 9.1604 10.4165ZM11.2437 14.5832V22.9165C8.94255 22.9165 7.07707 21.051 7.07707 18.7498V16.6665C7.07707 15.5159 8.00981 14.5832 9.1604 14.5832H11.2437ZM42.4937 10.4165H36.2437V27.0832H40.4104C45.0128 27.0832 48.7437 23.3522 48.7437 18.7498V16.6665C48.7437 13.2147 45.9455 10.4165 42.4937 10.4165ZM40.4104 14.5832V22.9165C42.7116 22.9165 44.5771 21.051 44.5771 18.7498V16.6665C44.5771 15.5159 43.6443 14.5832 42.4937 14.5832H40.4104Z"
          fill="url(#paint2_linear_255_31631)"/>
    <defs>
        <linearGradient id="paint0_linear_255_31631" x1="17.4939" y1="31.25" x2="17.4939" y2="43.75"
                        gradientUnits="userSpaceOnUse">
            <stop stop-color="#2CD138"/>
            <stop offset="1" stop-color="#00BC82"/>
        </linearGradient>
        <linearGradient id="paint1_linear_255_31631" x1="11.2439" y1="6.25" x2="11.2439" y2="35.4167"
                        gradientUnits="userSpaceOnUse">
            <stop stop-color="#2CD138"/>
            <stop offset="1" stop-color="#00BC82"/>
        </linearGradient>
        <linearGradient id="paint2_linear_255_31631" x1="2.9104" y1="10.4165" x2="2.9104" y2="27.0832"
                        gradientUnits="userSpaceOnUse">
            <stop stop-color="#2CD138"/>
            <stop offset="1" stop-color="#00BC82"/>
        </linearGradient>
    </defs>
</svg>
