<svg width="41" height="40" viewBox="0 0 41 40" fill="none" xmlns="http://www.w3.org/2000/svg">
    <path fill-rule="evenodd" clip-rule="evenodd"
          d="M39.0996 20.5127C39.9994 20.5127 40.7358 21.2434 40.6609 22.14C40.493 24.1498 40.0148 26.1248 39.2406 27.9941C38.2581 30.3659 36.8181 32.5211 35.0028 34.3365C33.1874 36.1519 31.0322 37.5919 28.6603 38.5743C26.791 39.3486 24.816 39.8267 22.8062 39.9946C21.9096 40.0696 21.179 39.3331 21.179 38.4333V37.7817C21.179 36.8819 21.9103 36.1613 22.8052 36.0677C24.301 35.9113 25.7693 35.5397 27.164 34.962C29.0616 34.176 30.7857 33.024 32.238 31.5718C33.6902 30.1195 34.8423 28.3953 35.6283 26.4978C36.206 25.1031 36.5776 23.6347 36.734 22.1389C36.8276 21.244 37.5481 20.5127 38.4479 20.5127H39.0996Z"
          fill="#2CD138"/>
    <path fill-rule="evenodd" clip-rule="evenodd"
          d="M39.262 17.2661C40.1841 17.1393 40.8336 16.3032 40.6278 15.415C39.931 12.408 38.5235 9.59382 36.5088 7.20284C34.1357 4.38655 31.0127 2.26701 27.485 1.07858C23.9573 -0.109845 20.1623 -0.320879 16.5196 0.468816C12.8769 1.25851 9.52843 3.01817 6.84437 5.55325C4.16029 8.08833 2.24517 11.3001 1.31075 14.8334C0.376334 18.3668 0.459008 22.084 1.54964 25.5742C2.64026 29.0644 4.69636 32.1917 7.49061 34.6102C9.86283 36.6635 12.6887 38.138 15.7365 38.9245C16.6368 39.1568 17.5139 38.5511 17.6756 37.6542L17.7928 37.0046C17.9545 36.1076 17.3387 35.2606 16.4435 35.01C14.1295 34.3622 11.9851 33.2155 10.1719 31.6461C7.93652 29.7113 6.29164 27.2095 5.41913 24.4173C4.54663 21.6251 4.48049 18.6513 5.22803 15.8246C5.97557 12.998 7.50766 10.4286 9.65496 8.40051C11.8022 6.37245 14.4809 4.96472 17.3951 4.33297C20.3093 3.70121 23.3453 3.87003 26.1674 4.82078C28.9896 5.77152 31.4881 7.46715 33.3865 9.72022C34.9263 11.5477 36.0229 13.6842 36.6037 15.969C36.8284 16.8529 37.6721 17.4845 38.5942 17.3578L39.262 17.2661Z"
          fill="#B1B5C4"/>
</svg>
