<svg width="17" height="16" viewBox="0 0 17 16" fill="none" xmlns="http://www.w3.org/2000/svg">
<path fill-rule="evenodd" clip-rule="evenodd" d="M7.83325 2.0001V4.0001C7.83325 4.36829 8.13173 4.66677 8.49992 4.66677C8.86811 4.66677 9.16659 4.36829 9.16659 4.0001V2.0001C9.16659 1.63191 8.86811 1.33344 8.49992 1.33344C8.13173 1.33344 7.83325 1.63191 7.83325 2.0001ZM7.83325 12.0001V14.0001C7.83325 14.3683 8.13173 14.6668 8.49992 14.6668C8.86811 14.6668 9.16659 14.3683 9.16659 14.0001V12.0001C9.16659 11.6319 8.86811 11.3334 8.49992 11.3334C8.13173 11.3334 7.83325 11.6319 7.83325 12.0001ZM15.1666 8.0001C15.1666 8.36829 14.8681 8.66677 14.4999 8.66677H12.4999C12.1317 8.66677 11.8333 8.36829 11.8333 8.0001C11.8333 7.63191 12.1317 7.33344 12.4999 7.33344H14.4999C14.8681 7.33344 15.1666 7.63191 15.1666 8.0001ZM4.49992 7.33344H2.49992C2.13173 7.33344 1.83325 7.63191 1.83325 8.0001C1.83325 8.36829 2.13173 8.66677 2.49992 8.66677H4.49992C4.86811 8.66677 5.16659 8.36829 5.16659 8.0001C5.16659 7.63191 4.86811 7.33344 4.49992 7.33344ZM13.214 3.28612C13.4743 3.54647 13.4743 3.96858 13.214 4.22893L11.7998 5.64314C11.5394 5.90349 11.1173 5.90349 10.857 5.64314C10.5966 5.3828 10.5966 4.96069 10.857 4.70034L12.2712 3.28612C12.5315 3.02577 12.9536 3.02577 13.214 3.28612ZM5.20006 10.3571L3.78585 11.7713C3.5255 12.0316 3.5255 12.4538 3.78585 12.7141C4.0462 12.9745 4.46831 12.9745 4.72866 12.7141L6.14287 11.2999C6.40322 11.0395 6.40322 10.6174 6.14287 10.3571C5.88252 10.0967 5.46041 10.0967 5.20006 10.3571ZM13.214 12.7142C12.9536 12.9745 12.5315 12.9745 12.2712 12.7142L10.857 11.3C10.5966 11.0396 10.5966 10.6175 10.857 10.3572C11.1173 10.0968 11.5394 10.0968 11.7998 10.3572L13.214 11.7714C13.4743 12.0317 13.4743 12.4538 13.214 12.7142ZM6.14293 4.70025L4.72872 3.28603C4.46837 3.02568 4.04626 3.02568 3.78591 3.28603C3.52556 3.54638 3.52556 3.96849 3.78591 4.22884L5.20013 5.64306C5.46047 5.90341 5.88259 5.90341 6.14293 5.64306C6.40328 5.38271 6.40328 4.9606 6.14293 4.70025Z" fill="#FCFCFD"/>
</svg>
