<svg width="24" height="24" viewBox="0 0 24 24" fill="none" xmlns="http://www.w3.org/2000/svg">
<mask id="path-1-inside-1_198_5662" fill="white">
<path fill-rule="evenodd" clip-rule="evenodd" d="M6.76884 5C10.5072 5 13.5374 8.05143 13.5374 11.8153C13.5374 15.5792 10.5069 18.6303 6.76884 18.6303C3.03073 18.6303 0 15.5792 0 11.8153C0 8.05143 3.0305 5 6.76884 5ZM17.5782 5.39922C19.4474 5.39922 20.9626 8.2715 20.9626 11.8153H20.9628C20.9628 15.3582 19.4476 18.2314 17.5784 18.2314C15.7092 18.2314 14.194 15.3582 14.194 11.8153C14.194 8.27242 15.709 5.39922 17.5782 5.39922ZM24 11.8153C24 8.64083 23.4669 6.0675 22.8097 6.0675C22.1524 6.0675 21.6196 8.64106 21.6196 11.8153C21.6196 14.9895 22.1522 17.5631 22.8097 17.5631C23.4672 17.5631 24 14.9888 24 11.8153Z"/>
</mask>
<path d="M20.9626 11.8153H18.9626V13.8153H20.9626V11.8153ZM20.9628 11.8153H22.9628V9.81529H20.9628V11.8153ZM15.5374 11.8153C15.5374 6.95989 11.6247 3 6.76884 3V7C9.38962 7 11.5374 9.14296 11.5374 11.8153H15.5374ZM6.76884 20.6303C11.6244 20.6303 15.5374 16.6708 15.5374 11.8153H11.5374C11.5374 14.4875 9.38952 16.6303 6.76884 16.6303V20.6303ZM-2 11.8153C-2 16.6709 1.91339 20.6303 6.76884 20.6303V16.6303C4.14807 16.6303 2 14.4874 2 11.8153H-2ZM6.76884 3C1.91303 3 -2 6.9598 -2 11.8153H2C2 9.14305 4.14797 7 6.76884 7V3ZM22.9626 11.8153C22.9626 9.78489 22.5328 7.84759 21.7403 6.34519C20.9959 4.934 19.6223 3.39922 17.5782 3.39922V7.39922C17.4032 7.39922 17.7219 7.30059 18.2024 8.21148C18.6348 9.03117 18.9626 10.3019 18.9626 11.8153H22.9626ZM20.9628 9.81529H20.9626V13.8153H20.9628V9.81529ZM17.5784 20.2314C19.6228 20.2314 20.9963 18.696 21.7406 17.285C22.533 15.7825 22.9628 13.8453 22.9628 11.8153H18.9628C18.9628 13.3281 18.635 14.5989 18.2026 15.4188C17.7219 16.3301 17.4032 16.2314 17.5784 16.2314V20.2314ZM12.194 11.8153C12.194 13.8453 12.6238 15.7825 13.4163 17.285C14.1605 18.696 15.534 20.2314 17.5784 20.2314V16.2314C17.7536 16.2314 17.4349 16.3301 16.9543 15.4188C16.5218 14.5989 16.194 13.3281 16.194 11.8153H12.194ZM17.5782 3.39922C15.5337 3.39922 14.1603 4.93463 13.4161 6.34568C12.6237 7.8481 12.194 9.78533 12.194 11.8153H16.194C16.194 10.3024 16.5218 9.03158 16.9542 8.21168C17.4348 7.30042 17.7535 7.39922 17.5782 7.39922V3.39922ZM22.8097 8.0675C22.1901 8.0675 21.7939 7.75525 21.6437 7.60684C21.4997 7.46451 21.457 7.35839 21.4767 7.39864C21.5121 7.47096 21.5993 7.70473 21.6929 8.15658C21.8732 9.02741 22 10.322 22 11.8153H26C26 10.1341 25.8602 8.55481 25.6098 7.34537C25.4879 6.75708 25.3186 6.14911 25.0692 5.63974C24.9465 5.38914 24.7543 5.05717 24.4554 4.76172C24.1502 4.46017 23.5936 4.0675 22.8097 4.0675V8.0675ZM23.6196 11.8153C23.6196 10.3221 23.7463 9.02745 23.9266 8.15656C24.0202 7.70467 24.1074 7.47087 24.1428 7.39852C24.1625 7.35825 24.1198 7.46439 23.9758 7.60674C23.8256 7.75518 23.4294 8.0675 22.8097 8.0675V4.0675C22.0257 4.0675 21.469 4.46026 21.1639 4.76184C20.865 5.05733 20.6728 5.38932 20.5501 5.63992C20.3008 6.14931 20.1315 6.75729 20.0097 7.34557C19.7593 8.55501 19.6196 10.1343 19.6196 11.8153H23.6196ZM22.8097 15.5631C23.4292 15.5631 23.8253 15.8752 23.9756 16.0237C24.1196 16.1661 24.1624 16.2722 24.1427 16.232C24.1073 16.1597 24.0201 15.926 23.9266 15.4741C23.7463 14.6032 23.6196 13.3085 23.6196 11.8153H19.6196C19.6196 13.4963 19.7592 15.0755 20.0096 16.285C20.1314 16.8732 20.3007 17.4813 20.5501 17.9907C20.6728 18.2414 20.865 18.5734 21.164 18.8689C21.4693 19.1705 22.0258 19.5631 22.8097 19.5631V15.5631ZM22 11.8153C22 13.3081 21.8733 14.6028 21.6929 15.4737C21.5994 15.9257 21.5122 16.1595 21.4767 16.2319C21.457 16.2722 21.4997 16.1661 21.6437 16.0238C21.7939 15.8753 22.19 15.5631 22.8097 15.5631V19.5631C23.5937 19.5631 24.1503 19.1704 24.4555 18.8688C24.7545 18.5732 24.9467 18.2412 25.0694 17.9906C25.3188 17.4811 25.488 16.8731 25.6099 16.2848C25.8603 15.0752 26 13.496 26 11.8153H22Z" fill="url(#paint0_linear_198_5662)" mask="url(#path-1-inside-1_198_5662)"/>
<defs>
<linearGradient id="paint0_linear_198_5662" x1="12" y1="25.4455" x2="23.7064" y2="4.83323" gradientUnits="userSpaceOnUse">
<stop stop-color="#00BC82"/>
<stop offset="1" stop-color="#00D33C"/>
</linearGradient>
</defs>
</svg>
