<svg width="20" height="20" viewBox="0 0 20 20" fill="none" xmlns="http://www.w3.org/2000/svg">
<path d="M9.97902 0C4.7284 0 0.421523 4.04938 0.0146484 9.19625L5.37277 11.4131C5.84285 11.0925 6.39877 10.9213 6.96777 10.9219C7.01965 10.9219 7.07215 10.925 7.12402 10.925L9.50715 7.47437V7.42562C9.50715 5.34562 11.1965 3.65625 13.2765 3.65625C15.3565 3.65625 17.049 5.34875 17.049 7.42875C17.0477 8.42859 16.6497 9.38704 15.9424 10.0937C15.2351 10.8004 14.2764 11.1976 13.2765 11.1981H13.1921L9.7934 13.6231C9.7934 13.6688 9.79652 13.7112 9.79652 13.7569C9.79652 15.3194 8.5334 16.5856 6.9709 16.5856C5.61027 16.5856 4.45777 15.6088 4.19402 14.3138L0.359648 12.725C1.54777 16.9244 5.39902 20.0006 9.97902 20.0006C15.4996 20.0006 19.9759 15.525 19.9759 10.0006C19.9759 4.47625 15.5003 0.000625 9.97902 0.000625V0ZM6.27777 15.1756L5.05027 14.6675C5.27633 15.1371 5.66652 15.5078 6.14715 15.7094C6.66739 15.9248 7.2518 15.9251 7.77231 15.7104C8.29282 15.4956 8.70698 15.0833 8.92402 14.5638C9.0317 14.3066 9.08742 14.0307 9.08796 13.7519C9.08849 13.4731 9.03384 13.1969 8.92715 12.9394C8.8219 12.6805 8.66603 12.4451 8.46866 12.2472C8.27129 12.0493 8.03641 11.8928 7.77777 11.7869C7.27944 11.5787 6.72031 11.5693 6.21527 11.7606L7.48152 12.285C8.27902 12.62 8.65652 13.535 8.32465 14.3325C7.99277 15.13 7.07465 15.5075 6.27715 15.1756H6.27777ZM15.7896 7.42188C15.789 6.7561 15.5244 6.11773 15.0539 5.64666C14.5835 5.17559 13.9454 4.91024 13.2796 4.90875C12.6131 4.90875 11.9739 5.17353 11.5026 5.64483C11.0313 6.11613 10.7665 6.75535 10.7665 7.42188C10.7665 8.0884 11.0313 8.72762 11.5026 9.19892C11.9739 9.67023 12.6131 9.935 13.2796 9.935C13.9456 9.93401 14.5839 9.66881 15.0545 9.19764C15.5251 8.72646 15.7895 8.08781 15.7896 7.42188ZM11.3984 7.41875C11.3984 6.37375 12.2415 5.53062 13.2834 5.53062C14.3253 5.53062 15.1746 6.37375 15.1746 7.41875C15.1746 8.46062 14.3253 9.30688 13.2834 9.30688C12.2415 9.30688 11.3984 8.46062 11.3984 7.41875Z" />
</svg>
