<svg width="16" height="16" viewBox="0 0 16 16" fill="none" xmlns="http://www.w3.org/2000/svg">
<path fill-rule="evenodd" clip-rule="evenodd" d="M13.3335 8.00004C13.3335 5.05452 10.9457 2.66671 8.00016 2.66671C5.05464 2.66671 2.66683 5.05452 2.66683 8.00004C2.66683 10.9456 5.05464 13.3334 8.00016 13.3334C10.9457 13.3334 13.3335 10.9456 13.3335 8.00004ZM14.6668 8.00004C14.6668 4.31814 11.6821 1.33337 8.00016 1.33337C4.31826 1.33337 1.3335 4.31814 1.3335 8.00004C1.3335 11.6819 4.31826 14.6667 8.00016 14.6667C11.6821 14.6667 14.6668 11.6819 14.6668 8.00004Z" fill="#777E91"/>
<path fill-rule="evenodd" clip-rule="evenodd" d="M9.99984 8.00004C9.99984 6.3212 9.65676 4.86722 9.16429 3.88228C8.63195 2.81759 8.14321 2.66671 7.99984 2.66671C7.85647 2.66671 7.36773 2.81759 6.83538 3.88228C6.34292 4.86722 5.99984 6.3212 5.99984 8.00004C5.99984 9.67888 6.34292 11.1329 6.83538 12.1178C7.36773 13.1825 7.85647 13.3334 7.99984 13.3334C8.14321 13.3334 8.63195 13.1825 9.16429 12.1178C9.65676 11.1329 9.99984 9.67888 9.99984 8.00004ZM11.3332 8.00004C11.3332 4.31814 9.84079 1.33337 7.99984 1.33337C6.15889 1.33337 4.6665 4.31814 4.6665 8.00004C4.6665 11.6819 6.15889 14.6667 7.99984 14.6667C9.84079 14.6667 11.3332 11.6819 11.3332 8.00004Z" fill="#777E91"/>
<path fill-rule="evenodd" clip-rule="evenodd" d="M14.6668 8.00004C14.6668 7.77504 14.6557 7.55264 14.6339 7.33337H1.36641C1.34464 7.55264 1.3335 7.77504 1.3335 8.00004C1.3335 8.22504 1.34464 8.44744 1.36641 8.66671H14.6339C14.6557 8.44744 14.6668 8.22504 14.6668 8.00004Z" fill="#777E91"/>
</svg>
