<svg width="26" height="27" viewBox="0 0 26 27" fill="none" xmlns="http://www.w3.org/2000/svg">
<path d="M3.95113 2.78904L3.32192 2.14331C3.29953 2.43093 3.18063 2.70255 2.98451 2.91413C2.7884 3.12571 2.52656 3.26483 2.24146 3.30894L2.88592 3.90891L26.0003 25.4572L3.95113 2.78904ZM5.4765 9.03414V21.898C5.69631 21.6667 5.99508 21.5266 6.31346 21.5054C6.63183 21.4842 6.94654 21.5835 7.19507 21.7836V13.1526L21.1229 26.7322H23.5228L5.4765 9.03414ZM21.7 6.06222C21.3683 6.0632 21.0492 5.9351 20.8102 5.70503V14.411L7.13787 0.832764H4.4901L22.5301 18.4927V5.7546C22.2992 5.95328 22.0046 6.06245 21.7 6.06222Z" fill="#FCFCFD"/>
<path d="M2.04653 3.9519e-07C1.64196 -0.000251045 1.24641 0.119488 0.909899 0.34407C0.573391 0.568653 0.311048 0.887991 0.156052 1.26169C0.00105673 1.63539 -0.0396282 2.04666 0.039145 2.44349C0.117918 2.84031 0.31261 3.20486 0.598594 3.49103C0.884577 3.77719 1.24901 3.97211 1.64578 4.05113C2.04256 4.13014 2.45386 4.08972 2.82765 3.93495C3.20145 3.78019 3.52095 3.51804 3.74574 3.18168C3.97053 2.84531 4.09052 2.44983 4.09052 2.04526C4.09018 1.50315 3.87477 0.983314 3.49155 0.599863C3.10834 0.216412 2.58864 0.000673723 2.04653 3.9519e-07ZM2.24101 3.30496C2.17669 3.31518 2.11166 3.32028 2.04653 3.32021C1.79326 3.32046 1.5456 3.24557 1.3349 3.10501C1.12421 2.96446 0.959946 2.76456 0.862906 2.53061C0.765866 2.29666 0.74041 2.03918 0.78976 1.79076C0.839109 1.54234 0.961046 1.31415 1.14014 1.13505C1.31923 0.955961 1.54743 0.834024 1.79585 0.784674C2.04427 0.735324 2.30175 0.76078 2.53569 0.857821C2.76964 0.954861 2.96954 1.11912 3.1101 1.32982C3.25065 1.54051 3.32554 1.78817 3.32529 2.04145C3.32529 2.0745 3.32529 2.10754 3.32529 2.13932C3.30272 2.4275 3.18328 2.69955 2.9864 2.9112C2.78953 3.12285 2.52681 3.26163 2.24101 3.30496Z" fill="#FCFCFD"/>
<path d="M21.6998 2.73804C21.1664 2.75134 20.6593 2.97259 20.2867 3.35458C19.9141 3.73658 19.7056 4.24905 19.7056 4.78266C19.7056 5.31627 19.9141 5.82875 20.2867 6.21074C20.6593 6.59273 21.1664 6.81398 21.6998 6.82728C21.9859 6.82807 22.2689 6.76783 22.5299 6.6506C22.9584 6.46062 23.3085 6.12916 23.5217 5.71175C23.7349 5.29434 23.7982 4.81633 23.7009 4.35783C23.6037 3.89933 23.3518 3.48819 22.9875 3.19329C22.6231 2.8984 22.1685 2.73767 21.6998 2.73804ZM22.5299 5.75444C22.3081 5.94368 22.0284 6.05145 21.737 6.05992C21.4455 6.06838 21.16 5.97701 20.9276 5.80096C20.6953 5.62492 20.53 5.37475 20.4593 5.09193C20.3886 4.80911 20.4166 4.51062 20.5387 4.24591C20.6609 3.9812 20.8698 3.76618 21.1309 3.63647C21.392 3.50676 21.6895 3.47016 21.9743 3.53272C22.259 3.59529 22.5138 3.75327 22.6965 3.98048C22.8791 4.20769 22.9787 4.4905 22.9786 4.78202C22.9791 4.967 22.9392 5.14984 22.8617 5.3178C22.7842 5.48575 22.6709 5.63477 22.5299 5.75444Z" fill="#FCFCFD"/>
<path d="M7.19724 20.9001C6.79255 20.7288 6.34346 20.6925 5.9165 20.7964C5.48953 20.9004 5.10739 21.1391 4.82668 21.4771C4.54597 21.8152 4.38161 22.2347 4.35795 22.6735C4.33429 23.1123 4.45258 23.5471 4.6953 23.9134C4.93803 24.2797 5.29228 24.5581 5.70559 24.7073C6.1189 24.8566 6.56929 24.8688 6.99006 24.742C7.41082 24.6153 7.77958 24.3564 8.04172 24.0038C8.30387 23.6511 8.44545 23.2233 8.4455 22.7839C8.44705 22.3817 8.32928 21.988 8.1071 21.6527C7.88491 21.3174 7.56828 21.0554 7.19724 20.9001ZM6.39643 24.0627C6.14357 24.0624 5.89646 23.9872 5.68633 23.8465C5.47621 23.7059 5.3125 23.5061 5.21591 23.2724C5.11932 23.0387 5.09418 22.7816 5.14366 22.5337C5.19314 22.2857 5.31504 22.0579 5.49392 21.8792C5.67281 21.7005 5.90067 21.5789 6.14869 21.5296C6.39671 21.4804 6.65376 21.5058 6.88735 21.6026C7.12094 21.6994 7.32058 21.8633 7.46104 22.0736C7.60149 22.2839 7.67646 22.531 7.67646 22.7839C7.67613 23.1232 7.54112 23.4484 7.3011 23.6882C7.06108 23.928 6.73569 24.0627 6.39643 24.0627Z" fill="#FCFCFD"/>
</svg>
