<svg width="20" height="20" viewBox="0 0 20 20" xmlns="http://www.w3.org/2000/svg">
    <path fill-rule="evenodd" clip-rule="evenodd"
          d="M16.6665 10.001C16.6665 6.31908 13.6817 3.33431 9.99984 3.33431C6.31794 3.33431 3.33317 6.31908 3.33317 10.001C3.33317 13.6829 6.31794 16.6676 9.99984 16.6676C13.6817 16.6676 16.6665 13.6829 16.6665 10.001ZM18.3332 10.001C18.3332 5.3986 14.6022 1.66764 9.99984 1.66764C5.39746 1.66764 1.6665 5.3986 1.6665 10.001C1.6665 14.6033 5.39746 18.3343 9.99984 18.3343C14.6022 18.3343 18.3332 14.6033 18.3332 10.001Z"/>
    <path fill-rule="evenodd" clip-rule="evenodd"
          d="M9.1665 6.66764C9.1665 7.12788 9.5396 7.50098 9.99984 7.50098C10.4601 7.50098 10.8332 7.12788 10.8332 6.66764C10.8332 6.2074 10.4601 5.83431 9.99984 5.83431C9.5396 5.83431 9.1665 6.2074 9.1665 6.66764ZM9.1665 10.001V13.3343C9.1665 13.7945 9.5396 14.1676 9.99984 14.1676C10.4601 14.1676 10.8332 13.7945 10.8332 13.3343V10.001C10.8332 9.54074 10.4601 9.16764 9.99984 9.16764C9.5396 9.16764 9.1665 9.54074 9.1665 10.001Z"/>
</svg>
